<svg xmlns="http://www.w3.org/2000/svg" viewBox="0 0 512 512" width="512" height="512"><path fill="#0a0a0a" d="M 428.89 248.06 C 428.39 249.89 427.79 251.71 427.09 253.49 C 426.40 255.27 425.59 257.03 424.73 258.76 C 423.86 260.49 422.88 262.18 421.90 263.84 C 420.92 265.51 419.85 267.13 418.83 268.73 C 417.81 270.33 416.75 271.90 415.77 273.46 C 414.80 275.01 413.84 276.54 413.00 278.08 C 412.16 279.62 411.38 281.15 410.73 282.71 C 410.08 284.27 409.53 285.83 409.09 287.44 C 408.66 289.05 408.35 290.68 408.11 292.36 C 407.88 294.04 407.76 295.76 407.68 297.53 C 407.60 299.30 407.65 301.12 407.63 302.95 C 407.62 304.79 407.68 306.68 407.59 308.53 C 407.50 310.38 407.38 312.25 407.10 314.07 C 406.83 315.88 406.47 317.69 405.95 319.40 C 405.43 321.12 404.77 322.80 403.96 324.38 C 403.15 325.96 402.18 327.46 401.09 328.87 C 400.00 330.27 398.74 331.58 397.41 332.80 C 396.08 334.03 394.60 335.14 393.10 336.21 C 391.60 337.28 390.00 338.24 388.43 339.20 C 386.86 340.16 385.24 341.05 383.68 341.97 C 382.13 342.88 380.58 343.77 379.13 344.72 C 377.67 345.67 376.26 346.63 374.94 347.68 C 373.61 348.73 372.38 349.84 371.19 351.01 C 370.01 352.19 368.91 353.44 367.83 354.74 C 366.74 356.03 365.64 357.29 364.68 358.78 C 363.73 360.27 362.92 361.94 362.10 363.67 C 361.29 365.41 360.55 367.28 359.78 369.18 C 359.00 371.09 358.27 373.10 357.47 375.10 C 356.66 377.10 355.86 379.17 354.97 381.20 C 354.08 383.22 353.15 385.27 352.13 387.24 C 351.12 389.22 350.03 391.18 348.86 393.04 C 347.69 394.90 346.44 396.72 345.11 398.42 C 343.78 400.12 342.36 401.75 340.88 403.26 C 339.39 404.77 337.82 406.19 336.18 407.48 C 334.55 408.76 332.84 409.94 331.08 410.98 C 329.31 412.02 327.48 412.94 325.60 413.70 C 323.72 414.46 321.78 415.09 319.80 415.54 C 317.83 415.99 315.80 416.29 313.75 416.40 C 311.70 416.50 309.60 416.43 307.51 416.15 C 305.41 415.87 303.28 415.40 301.17 414.73 C 299.05 414.05 296.92 413.17 294.83 412.11 C 292.74 411.05 290.66 409.77 288.63 408.37 C 286.60 406.98 284.60 405.36 282.66 403.73 C 280.73 402.10 278.85 400.23 277.04 398.59 C 275.22 396.95 273.47 395.52 271.78 393.89 C 270.08 392.26 268.43 390.66 266.86 388.80 C 265.29 386.95 263.79 384.80 262.36 382.77 C 260.93 380.74 259.57 378.63 258.27 376.63 C 256.96 374.64 255.73 372.67 254.53 370.83 C 253.32 368.99 252.18 367.24 251.05 365.62 C 249.92 364.00 248.83 362.50 247.75 361.10 C 246.67 359.71 245.61 358.44 244.56 357.24 C 243.51 356.03 242.47 354.94 241.45 353.85 C 240.42 352.76 239.41 351.76 238.43 350.71 C 237.45 349.67 236.48 348.65 235.56 347.57 C 234.64 346.49 233.75 345.40 232.93 344.23 C 232.10 343.06 231.32 341.83 230.60 340.56 C 229.88 339.28 229.22 337.93 228.61 336.57 C 228.01 335.20 227.47 333.77 226.95 332.37 C 226.44 330.97 225.99 329.52 225.53 328.16 C 225.07 326.80 224.66 325.44 224.19 324.21 C 223.73 322.99 223.28 321.81 222.73 320.79 C 222.18 319.77 221.61 318.85 220.90 318.09 C 220.20 317.34 219.42 316.72 218.50 316.26 C 217.57 315.80 216.54 315.50 215.34 315.32 C 214.15 315.14 212.82 315.12 211.35 315.18 C 209.88 315.23 208.25 315.43 206.50 315.66 C 204.76 315.88 202.86 316.22 200.88 316.53 C 198.91 316.84 196.79 317.21 194.64 317.52 C 192.48 317.84 190.22 318.16 187.95 318.41 C 185.68 318.65 183.33 318.87 181.00 318.99 C 178.68 319.11 176.31 319.16 173.97 319.12 C 171.64 319.08 169.29 318.96 166.98 318.75 C 164.67 318.54 162.38 318.23 160.12 317.84 C 157.85 317.45 155.61 316.97 153.42 316.40 C 151.22 315.83 149.05 315.18 146.95 314.44 C 144.85 313.70 142.75 312.88 140.81 311.94 C 138.87 311.01 136.98 309.98 135.30 308.83 C 133.62 307.68 132.43 306.28 130.72 305.06 C 129.01 303.83 126.99 302.70 125.04 301.47 C 123.08 300.25 121.00 299.02 118.98 297.71 C 116.96 296.40 114.89 295.05 112.92 293.62 C 110.95 292.18 108.99 290.69 107.15 289.11 C 105.30 287.54 103.52 285.89 101.86 284.18 C 100.21 282.47 98.65 280.68 97.21 278.85 C 95.76 277.01 94.44 275.10 93.21 273.16 C 91.98 271.22 90.87 269.22 89.83 267.19 C 88.79 265.16 87.85 263.09 86.96 260.99 C 86.07 258.89 85.26 256.76 84.47 254.61 C 83.69 252.45 82.96 250.27 82.25 248.06 C 81.55 245.86 80.87 243.63 80.24 241.38 C 79.60 239.12 78.99 236.84 78.45 234.55 C 77.91 232.25 77.40 229.92 77.00 227.59 C 76.60 225.26 76.25 222.90 76.06 220.56 C 75.88 218.21 75.78 215.85 75.88 213.52 C 75.98 211.19 76.21 208.86 76.66 206.59 C 77.11 204.32 77.74 202.07 78.59 199.90 C 79.44 197.73 80.50 195.60 81.76 193.58 C 83.01 191.55 84.49 189.59 86.11 187.74 C 87.74 185.88 89.58 184.12 91.50 182.45 C 93.43 180.78 95.54 179.21 97.67 177.72 C 99.80 176.23 102.06 174.84 104.28 173.49 C 106.51 172.15 108.80 170.89 111.01 169.65 C 113.22 168.41 115.43 167.24 117.54 166.05 C 119.65 164.87 121.71 163.73 123.67 162.56 C 125.64 161.39 127.51 160.23 129.31 159.04 C 131.12 157.86 132.82 156.66 134.49 155.46 C 136.16 154.26 137.74 153.04 139.33 151.84 C 140.92 150.64 142.46 149.42 144.04 148.27 C 145.63 147.11 147.20 145.96 148.84 144.91 C 150.48 143.85 152.15 142.83 153.90 141.92 C 155.64 141.01 157.46 140.20 159.30 139.44 C 161.14 138.69 163.08 138.08 164.93 137.42 C 166.79 136.77 168.37 135.84 170.44 135.51 C 172.50 135.19 174.88 135.23 177.30 135.47 C 179.73 135.72 182.37 136.28 185.00 137.00 C 187.64 137.72 190.40 138.70 193.12 139.80 C 195.84 140.90 198.62 142.22 201.32 143.61 C 204.02 144.99 206.73 146.55 209.33 148.13 C 211.93 149.70 214.49 151.39 216.93 153.07 C 219.37 154.74 221.73 156.47 223.97 158.15 C 226.21 159.83 228.34 161.53 230.36 163.14 C 232.38 164.76 234.28 166.36 236.06 167.85 C 237.85 169.34 239.52 170.79 241.09 172.11 C 242.66 173.43 244.11 174.67 245.46 175.76 C 246.82 176.85 248.06 177.85 249.23 178.66 C 250.39 179.48 251.45 180.17 252.45 180.65 C 253.44 181.12 254.34 181.45 255.19 181.54 C 256.04 181.62 256.81 181.52 257.56 181.17 C 258.31 180.81 258.99 180.23 259.67 179.40 C 260.36 178.56 261.00 177.47 261.67 176.15 C 262.35 174.82 263.00 173.22 263.72 171.43 C 264.45 169.64 265.18 167.58 266.00 165.39 C 266.82 163.20 267.68 160.76 268.64 158.28 C 269.61 155.79 270.64 153.11 271.78 150.46 C 272.92 147.82 274.15 145.05 275.47 142.40 C 276.79 139.74 278.22 137.05 279.72 134.54 C 281.22 132.04 282.82 129.58 284.47 127.35 C 286.12 125.12 287.85 123.02 289.61 121.17 C 291.37 119.32 293.20 117.66 295.02 116.24 C 296.85 114.82 298.71 113.63 300.56 112.65 C 302.41 111.67 304.28 110.93 306.11 110.38 C 307.94 109.83 309.79 109.44 311.55 109.36 C 313.31 109.29 314.90 109.86 316.66 109.94 C 318.42 110.01 320.20 110.00 322.11 109.79 C 324.01 109.58 326.01 109.17 328.09 108.69 C 330.18 108.21 332.35 107.59 334.62 106.92 C 336.89 106.25 339.26 105.46 341.72 104.66 C 344.18 103.87 346.74 102.97 349.37 102.14 C 351.99 101.30 354.72 100.41 357.47 99.64 C 360.22 98.87 363.05 98.11 365.85 97.51 C 368.66 96.92 371.52 96.39 374.30 96.07 C 377.08 95.76 379.87 95.57 382.55 95.60 C 385.22 95.64 387.86 95.86 390.36 96.29 C 392.86 96.72 395.27 97.37 397.53 98.20 C 399.79 99.03 401.93 100.09 403.93 101.30 C 405.93 102.50 407.78 103.92 409.51 105.44 C 411.23 106.97 412.81 108.67 414.29 110.44 C 415.77 112.21 417.11 114.13 418.37 116.07 C 419.64 118.02 420.78 120.06 421.88 122.12 C 422.97 124.17 423.97 126.29 424.93 128.41 C 425.89 130.53 426.78 132.68 427.62 134.84 C 428.47 136.99 429.26 139.16 430.01 141.34 C 430.75 143.52 431.44 145.70 432.07 147.90 C 432.70 150.10 433.28 152.31 433.78 154.53 C 434.27 156.76 434.71 159.00 435.05 161.25 C 435.40 163.50 435.66 165.77 435.84 168.05 C 436.02 170.32 436.11 172.61 436.12 174.89 C 436.14 177.18 436.06 179.47 435.93 181.74 C 435.80 184.02 435.59 186.29 435.35 188.53 C 435.12 190.77 434.82 192.99 434.54 195.18 C 434.25 197.37 433.93 199.53 433.64 201.65 C 433.35 203.77 433.06 205.86 432.81 207.91 C 432.57 209.97 432.34 211.98 432.16 213.97 C 431.98 215.97 431.84 217.92 431.72 219.86 C 431.60 221.80 431.53 223.72 431.45 225.62 C 431.36 227.53 431.31 229.42 431.20 231.31 C 431.10 233.19 431.00 235.07 430.82 236.94 C 430.64 238.81 430.42 240.68 430.10 242.54 C 429.78 244.39 429.39 246.24 428.89 248.06 Z"/></svg>