<svg xmlns="http://www.w3.org/2000/svg" viewBox="0 0 512 512" width="512" height="512"><path fill="#0a0a0a" d="M 443.67 235.57 C 443.56 237.57 443.40 239.58 443.14 241.57 C 442.88 243.55 442.54 245.54 442.09 247.50 C 441.65 249.47 441.10 251.42 440.48 253.34 C 439.86 255.26 439.13 257.16 438.37 259.03 C 437.61 260.91 436.75 262.75 435.92 264.57 C 435.08 266.40 434.18 268.20 433.34 269.99 C 432.50 271.78 431.64 273.55 430.87 275.33 C 430.10 277.11 429.37 278.88 428.72 280.67 C 428.07 282.47 427.49 284.28 426.98 286.11 C 426.47 287.95 426.05 289.82 425.66 291.71 C 425.27 293.60 424.97 295.53 424.64 297.48 C 424.31 299.42 424.04 301.40 423.69 303.37 C 423.34 305.34 423.01 307.33 422.54 309.28 C 422.07 311.22 421.56 313.18 420.89 315.05 C 420.22 316.92 419.45 318.76 418.51 320.49 C 417.57 322.23 416.49 323.90 415.26 325.46 C 414.04 327.01 412.64 328.47 411.15 329.82 C 409.65 331.17 407.99 332.41 406.28 333.56 C 404.57 334.71 402.73 335.74 400.88 336.72 C 399.04 337.70 397.09 338.57 395.22 339.46 C 393.35 340.34 391.44 341.14 389.66 342.04 C 387.88 342.94 386.14 343.81 384.57 344.84 C 382.99 345.87 381.52 346.96 380.21 348.23 C 378.90 349.51 377.74 350.90 376.70 352.50 C 375.66 354.10 374.79 355.86 373.98 357.81 C 373.18 359.75 372.53 361.89 371.88 364.16 C 371.24 366.43 370.70 368.90 370.11 371.42 C 369.53 373.94 368.99 376.63 368.35 379.29 C 367.72 381.95 367.07 384.73 366.29 387.40 C 365.51 390.08 364.66 392.79 363.66 395.35 C 362.66 397.90 361.55 400.42 360.30 402.73 C 359.04 405.05 357.65 407.26 356.12 409.25 C 354.60 411.24 352.93 413.06 351.15 414.67 C 349.38 416.28 347.47 417.69 345.48 418.89 C 343.49 420.09 341.38 421.08 339.23 421.88 C 337.07 422.69 334.82 423.28 332.54 423.70 C 330.26 424.12 327.92 424.35 325.56 424.41 C 323.21 424.48 320.81 424.36 318.41 424.08 C 316.02 423.80 313.60 423.36 311.20 422.75 C 308.80 422.14 306.39 421.36 304.01 420.43 C 301.63 419.49 299.26 418.39 296.93 417.14 C 294.60 415.89 292.30 414.46 290.05 412.92 C 287.81 411.38 285.60 409.66 283.46 407.89 C 281.33 406.12 279.24 404.17 277.24 402.31 C 275.23 400.44 273.29 398.41 271.41 396.70 C 269.53 394.98 267.70 393.86 265.95 392.01 C 264.20 390.17 262.51 387.88 260.92 385.61 C 259.33 383.35 257.83 380.83 256.40 378.42 C 254.97 376.00 253.64 373.49 252.36 371.11 C 251.09 368.74 249.90 366.37 248.74 364.16 C 247.58 361.95 246.49 359.82 245.42 357.84 C 244.35 355.86 243.33 354.01 242.31 352.27 C 241.30 350.54 240.31 348.95 239.34 347.43 C 238.36 345.91 237.40 344.51 236.46 343.14 C 235.52 341.76 234.60 340.47 233.71 339.15 C 232.83 337.83 231.96 336.56 231.15 335.22 C 230.34 333.89 229.57 332.55 228.86 331.15 C 228.15 329.75 227.50 328.30 226.90 326.83 C 226.31 325.35 225.79 323.81 225.31 322.28 C 224.83 320.75 224.42 319.16 224.02 317.65 C 223.62 316.14 223.29 314.60 222.91 313.19 C 222.53 311.78 222.19 310.41 221.75 309.20 C 221.31 307.99 220.87 306.87 220.29 305.94 C 219.70 305.01 219.06 304.22 218.24 303.62 C 217.43 303.02 216.50 302.61 215.38 302.34 C 214.26 302.08 212.99 302.02 211.54 302.06 C 210.09 302.10 208.46 302.33 206.69 302.59 C 204.91 302.86 202.94 303.28 200.89 303.68 C 198.83 304.07 196.60 304.56 194.33 304.97 C 192.07 305.39 189.67 305.83 187.29 306.16 C 184.91 306.48 182.46 306.78 180.06 306.94 C 177.66 307.10 175.25 307.18 172.91 307.13 C 170.58 307.08 168.28 306.91 166.06 306.63 C 163.85 306.34 161.70 305.93 159.62 305.42 C 157.54 304.92 155.55 304.29 153.59 303.59 C 151.64 302.89 149.76 302.09 147.90 301.24 C 146.04 300.39 144.23 299.45 142.42 298.48 C 140.61 297.51 138.82 296.48 137.03 295.40 C 135.23 294.33 133.43 293.21 131.65 292.04 C 129.87 290.86 128.06 289.66 126.35 288.37 C 124.64 287.08 122.94 285.74 121.41 284.31 C 119.89 282.88 118.79 281.28 117.21 279.79 C 115.62 278.29 113.72 276.86 111.90 275.34 C 110.09 273.82 108.15 272.28 106.30 270.66 C 104.45 269.05 102.59 267.38 100.83 265.65 C 99.07 263.91 97.36 262.11 95.76 260.25 C 94.17 258.40 92.66 256.47 91.25 254.50 C 89.84 252.54 88.55 250.51 87.33 248.44 C 86.11 246.38 85.00 244.26 83.93 242.12 C 82.87 239.97 81.90 237.78 80.95 235.57 C 80.00 233.35 79.12 231.10 78.25 228.82 C 77.38 226.54 76.54 224.23 75.73 221.89 C 74.92 219.54 74.13 217.16 73.39 214.76 C 72.65 212.35 71.92 209.90 71.28 207.44 C 70.65 204.98 70.04 202.48 69.58 199.98 C 69.11 197.48 68.70 194.95 68.48 192.43 C 68.25 189.92 68.13 187.39 68.21 184.91 C 68.29 182.42 68.53 179.94 68.97 177.52 C 69.40 175.10 70.03 172.71 70.84 170.40 C 71.64 168.08 72.65 165.82 73.80 163.64 C 74.95 161.46 76.29 159.35 77.72 157.31 C 79.14 155.27 80.73 153.31 82.34 151.39 C 83.96 149.47 85.69 147.63 87.38 145.81 C 89.08 143.99 90.84 142.23 92.53 140.46 C 94.22 138.68 95.92 136.95 97.54 135.18 C 99.16 133.42 100.74 131.66 102.27 129.88 C 103.81 128.10 105.27 126.29 106.73 124.49 C 108.19 122.68 109.58 120.84 111.03 119.04 C 112.47 117.24 113.88 115.41 115.40 113.68 C 116.93 111.95 118.46 110.22 120.15 108.65 C 121.84 107.07 123.61 105.55 125.56 104.24 C 127.50 102.93 129.58 101.73 131.83 100.78 C 134.08 99.83 136.51 99.05 139.08 98.53 C 141.64 98.01 144.40 97.72 147.23 97.65 C 150.07 97.59 153.08 97.79 156.09 98.13 C 159.09 98.47 162.26 99.11 165.27 99.71 C 168.28 100.30 171.28 101.02 174.15 101.70 C 177.03 102.38 179.60 102.74 182.52 103.78 C 185.43 104.81 188.63 106.39 191.65 107.93 C 194.68 109.47 197.74 111.26 200.66 113.02 C 203.57 114.77 206.43 116.66 209.14 118.45 C 211.85 120.25 214.45 122.09 216.90 123.80 C 219.35 125.51 221.67 127.19 223.85 128.74 C 226.03 130.28 228.07 131.74 230.00 133.06 C 231.92 134.38 233.71 135.59 235.41 136.66 C 237.11 137.73 238.69 138.68 240.19 139.48 C 241.70 140.29 243.10 140.97 244.44 141.51 C 245.79 142.05 247.04 142.45 248.26 142.71 C 249.48 142.96 250.62 143.08 251.74 143.02 C 252.86 142.96 253.92 142.76 254.98 142.37 C 256.04 141.98 257.05 141.43 258.08 140.68 C 259.10 139.93 260.11 138.99 261.14 137.88 C 262.18 136.76 263.22 135.44 264.31 133.96 C 265.40 132.49 266.51 130.81 267.69 129.04 C 268.88 127.26 270.10 125.29 271.41 123.30 C 272.72 121.30 274.10 119.15 275.55 117.05 C 277.01 114.95 278.54 112.76 280.15 110.69 C 281.75 108.62 283.44 106.54 285.17 104.64 C 286.91 102.73 288.73 100.90 290.57 99.28 C 292.41 97.66 294.31 96.18 296.21 94.93 C 298.11 93.68 300.05 92.62 301.98 91.78 C 303.90 90.93 305.84 90.30 307.75 89.85 C 309.65 89.39 311.56 89.15 313.43 89.03 C 315.31 88.91 317.16 88.98 318.99 89.13 C 320.82 89.29 322.63 89.59 324.41 89.96 C 326.19 90.32 327.84 91.04 329.69 91.33 C 331.54 91.61 333.47 91.67 335.49 91.66 C 337.50 91.65 339.60 91.49 341.79 91.28 C 343.97 91.07 346.25 90.73 348.60 90.40 C 350.95 90.06 353.40 89.63 355.88 89.27 C 358.36 88.90 360.93 88.49 363.49 88.21 C 366.05 87.93 368.67 87.67 371.23 87.59 C 373.78 87.50 376.36 87.51 378.83 87.72 C 381.29 87.94 383.73 88.31 386.01 88.89 C 388.30 89.47 390.50 90.25 392.54 91.22 C 394.57 92.19 396.48 93.38 398.23 94.72 C 399.99 96.06 401.58 97.61 403.04 99.26 C 404.51 100.91 405.81 102.74 407.02 104.61 C 408.24 106.48 409.30 108.49 410.33 110.49 C 411.36 112.48 412.28 114.56 413.21 116.59 C 414.14 118.62 415.00 120.68 415.91 122.68 C 416.82 124.67 417.71 126.65 418.67 128.58 C 419.62 130.51 420.60 132.39 421.63 134.24 C 422.67 136.09 423.75 137.89 424.87 139.68 C 425.98 141.47 427.15 143.22 428.30 144.99 C 429.45 146.76 430.65 148.51 431.79 150.30 C 432.92 152.09 434.07 153.88 435.11 155.73 C 436.15 157.58 437.16 159.45 438.05 161.38 C 438.94 163.30 439.75 165.27 440.43 167.28 C 441.11 169.29 441.68 171.35 442.14 173.43 C 442.60 175.51 442.94 177.63 443.19 179.75 C 443.45 181.88 443.58 184.03 443.67 186.17 C 443.76 188.32 443.76 190.47 443.75 192.60 C 443.74 194.73 443.67 196.86 443.62 198.96 C 443.57 201.07 443.50 203.16 443.47 205.23 C 443.44 207.30 443.42 209.35 443.42 211.39 C 443.43 213.44 443.47 215.46 443.51 217.48 C 443.55 219.50 443.63 221.51 443.68 223.52 C 443.72 225.53 443.79 227.54 443.79 229.55 C 443.79 231.56 443.77 233.57 443.67 235.57 Z"/></svg>