<svg xmlns="http://www.w3.org/2000/svg" viewBox="0 0 512 512" width="512" height="512"><path fill="#0a0a0a" d="M 430.77 242.46 C 430.76 244.24 430.66 246.02 430.45 247.78 C 430.24 249.54 429.93 251.31 429.50 253.04 C 429.08 254.78 428.55 256.51 427.92 258.20 C 427.30 259.89 426.52 261.56 425.75 263.20 C 424.98 264.84 424.11 266.45 423.29 268.04 C 422.47 269.64 421.60 271.20 420.83 272.78 C 420.05 274.35 419.29 275.89 418.64 277.47 C 417.99 279.05 417.41 280.62 416.95 282.24 C 416.49 283.86 416.14 285.50 415.90 287.20 C 415.66 288.90 415.55 290.63 415.51 292.43 C 415.46 294.23 415.55 296.08 415.64 297.98 C 415.73 299.88 415.93 301.85 416.06 303.83 C 416.19 305.81 416.37 307.85 416.43 309.87 C 416.49 311.89 416.54 313.95 416.42 315.94 C 416.29 317.93 416.09 319.93 415.70 321.83 C 415.31 323.74 414.78 325.60 414.07 327.35 C 413.36 329.10 412.48 330.77 411.45 332.33 C 410.42 333.88 409.21 335.33 407.91 336.69 C 406.61 338.04 405.14 339.27 403.65 340.45 C 402.15 341.63 400.53 342.70 398.95 343.77 C 397.37 344.84 395.73 345.82 394.17 346.86 C 392.61 347.90 391.05 348.90 389.60 350.02 C 388.15 351.13 386.76 352.26 385.48 353.54 C 384.21 354.81 383.03 356.16 381.95 357.67 C 380.87 359.17 379.91 360.80 379.00 362.56 C 378.09 364.33 377.30 366.25 376.51 368.26 C 375.72 370.28 375.02 372.45 374.27 374.66 C 373.52 376.87 372.82 379.21 372.03 381.54 C 371.24 383.86 370.44 386.26 369.53 388.59 C 368.62 390.91 367.66 393.26 366.56 395.47 C 365.47 397.68 364.29 399.86 362.98 401.86 C 361.67 403.86 360.24 405.77 358.71 407.48 C 357.17 409.19 355.51 410.76 353.77 412.13 C 352.02 413.51 350.15 414.71 348.22 415.72 C 346.29 416.72 344.26 417.55 342.18 418.19 C 340.11 418.83 337.95 419.29 335.77 419.57 C 333.59 419.86 331.35 419.97 329.10 419.91 C 326.86 419.85 324.57 419.61 322.29 419.21 C 320.01 418.81 317.71 418.25 315.43 417.51 C 313.15 416.77 310.86 415.86 308.61 414.79 C 306.36 413.71 304.11 412.46 301.92 411.06 C 299.72 409.65 297.55 408.06 295.45 406.37 C 293.35 404.68 291.29 402.79 289.30 400.90 C 287.32 399.00 285.40 396.85 283.55 395.03 C 281.70 393.20 279.93 391.91 278.22 389.95 C 276.52 387.99 274.85 385.74 273.31 383.28 C 271.76 380.83 270.30 377.99 268.94 375.21 C 267.59 372.44 266.34 369.47 265.17 366.63 C 264.01 363.79 262.96 360.88 261.97 358.15 C 260.97 355.41 260.08 352.72 259.22 350.24 C 258.36 347.76 257.58 345.40 256.80 343.25 C 256.03 341.09 255.30 339.12 254.57 337.33 C 253.84 335.53 253.13 333.94 252.41 332.48 C 251.69 331.01 250.98 329.74 250.26 328.54 C 249.53 327.34 248.80 326.30 248.09 325.27 C 247.37 324.24 246.64 323.32 245.94 322.37 C 245.24 321.43 244.54 320.53 243.88 319.60 C 243.22 318.66 242.58 317.73 241.98 316.77 C 241.38 315.81 240.82 314.82 240.28 313.83 C 239.74 312.85 239.24 311.83 238.74 310.86 C 238.23 309.89 237.77 308.90 237.26 308.02 C 236.75 307.14 236.26 306.27 235.67 305.55 C 235.08 304.83 234.48 304.18 233.73 303.70 C 232.99 303.21 232.18 302.85 231.20 302.65 C 230.22 302.45 229.13 302.40 227.85 302.50 C 226.57 302.59 225.13 302.86 223.51 303.22 C 221.90 303.59 220.10 304.12 218.14 304.68 C 216.18 305.25 214.04 305.95 211.78 306.63 C 209.52 307.31 207.09 308.07 204.60 308.75 C 202.12 309.44 199.48 310.15 196.86 310.74 C 194.23 311.33 191.50 311.89 188.83 312.31 C 186.16 312.72 183.45 313.05 180.82 313.23 C 178.19 313.42 175.57 313.48 173.06 313.40 C 170.54 313.32 168.08 313.10 165.72 312.77 C 163.36 312.43 161.08 311.95 158.89 311.36 C 156.70 310.78 154.60 310.07 152.59 309.26 C 150.59 308.46 148.65 307.55 146.85 306.54 C 145.05 305.53 143.31 304.43 141.79 303.21 C 140.28 301.99 139.30 300.50 137.75 299.22 C 136.20 297.94 134.36 296.75 132.49 295.51 C 130.63 294.26 128.59 293.03 126.56 291.74 C 124.53 290.45 122.40 289.13 120.31 287.74 C 118.22 286.35 116.08 284.92 114.04 283.40 C 111.99 281.88 109.95 280.30 108.04 278.64 C 106.13 276.98 104.27 275.24 102.57 273.44 C 100.86 271.63 99.26 269.75 97.80 267.82 C 96.35 265.89 95.03 263.88 93.84 261.84 C 92.65 259.80 91.60 257.70 90.65 255.58 C 89.71 253.46 88.90 251.29 88.16 249.10 C 87.41 246.91 86.78 244.70 86.19 242.46 C 85.60 240.23 85.09 237.97 84.61 235.70 C 84.13 233.43 83.70 231.14 83.31 228.83 C 82.91 226.53 82.55 224.20 82.25 221.87 C 81.95 219.53 81.67 217.17 81.50 214.82 C 81.33 212.46 81.20 210.08 81.23 207.73 C 81.25 205.37 81.35 203.00 81.65 200.68 C 81.95 198.36 82.36 196.04 83.00 193.79 C 83.64 191.54 84.45 189.32 85.49 187.20 C 86.52 185.07 87.77 183.00 89.21 181.05 C 90.65 179.09 92.32 177.22 94.15 175.47 C 95.97 173.71 98.02 172.06 100.16 170.52 C 102.29 168.98 104.62 167.55 106.96 166.21 C 109.30 164.87 111.78 163.64 114.21 162.47 C 116.63 161.29 119.13 160.21 121.53 159.15 C 123.92 158.08 126.31 157.08 128.58 156.07 C 130.85 155.05 133.05 154.07 135.13 153.05 C 137.20 152.02 139.17 151.00 141.05 149.94 C 142.93 148.88 144.68 147.79 146.38 146.67 C 148.08 145.56 149.67 144.41 151.26 143.27 C 152.85 142.13 154.36 140.95 155.91 139.83 C 157.47 138.71 158.99 137.58 160.58 136.54 C 162.18 135.50 163.80 134.50 165.46 133.57 C 167.13 132.65 168.88 131.83 170.58 130.99 C 172.27 130.15 173.71 129.03 175.63 128.52 C 177.55 128.01 179.78 127.83 182.11 127.92 C 184.45 128.01 187.02 128.44 189.63 129.07 C 192.23 129.69 195.00 130.62 197.74 131.69 C 200.49 132.77 203.33 134.10 206.09 135.51 C 208.85 136.93 211.63 138.54 214.30 140.17 C 216.97 141.79 219.61 143.55 222.10 145.26 C 224.60 146.97 227.01 148.74 229.28 150.41 C 231.54 152.07 233.69 153.74 235.70 155.27 C 237.70 156.80 239.57 158.27 241.32 159.58 C 243.07 160.90 244.68 162.12 246.19 163.18 C 247.70 164.24 249.08 165.17 250.37 165.94 C 251.67 166.72 252.85 167.35 253.97 167.82 C 255.09 168.29 256.11 168.61 257.09 168.76 C 258.07 168.92 258.97 168.92 259.84 168.73 C 260.71 168.55 261.52 168.20 262.32 167.66 C 263.12 167.11 263.88 166.38 264.64 165.45 C 265.41 164.51 266.15 163.37 266.92 162.02 C 267.69 160.67 268.45 159.10 269.28 157.33 C 270.10 155.57 270.94 153.57 271.86 151.42 C 272.78 149.26 273.74 146.88 274.80 144.41 C 275.86 141.93 276.99 139.25 278.22 136.56 C 279.46 133.87 280.78 131.02 282.21 128.26 C 283.64 125.49 285.17 122.64 286.79 119.96 C 288.41 117.28 290.13 114.60 291.92 112.18 C 293.70 109.76 295.58 107.43 297.48 105.42 C 299.39 103.40 301.37 101.57 303.33 100.10 C 305.28 98.62 307.30 97.37 309.23 96.57 C 311.17 95.77 313.06 95.50 314.91 95.31 C 316.77 95.12 318.52 95.46 320.38 95.44 C 322.24 95.41 324.16 95.25 326.08 95.19 C 327.99 95.12 329.92 95.09 331.88 95.04 C 333.84 94.99 335.81 94.97 337.84 94.91 C 339.87 94.84 341.92 94.77 344.04 94.64 C 346.16 94.52 348.32 94.36 350.55 94.16 C 352.79 93.97 355.08 93.72 357.43 93.49 C 359.79 93.25 362.21 92.97 364.66 92.75 C 367.11 92.53 369.63 92.30 372.13 92.19 C 374.62 92.08 377.17 92.00 379.65 92.09 C 382.13 92.19 384.62 92.37 386.99 92.76 C 389.36 93.15 391.69 93.69 393.87 94.44 C 396.05 95.19 398.14 96.13 400.05 97.27 C 401.96 98.41 403.74 99.77 405.35 101.28 C 406.95 102.79 408.38 104.52 409.66 106.36 C 410.94 108.20 412.03 110.22 413.01 112.30 C 413.99 114.38 414.79 116.61 415.53 118.83 C 416.26 121.06 416.85 123.39 417.41 125.67 C 417.97 127.96 418.43 130.29 418.90 132.56 C 419.37 134.83 419.78 137.09 420.22 139.30 C 420.66 141.50 421.09 143.67 421.56 145.78 C 422.02 147.90 422.50 149.96 423.00 151.99 C 423.50 154.03 424.04 156.01 424.56 157.98 C 425.08 159.95 425.63 161.88 426.14 163.81 C 426.65 165.75 427.17 167.67 427.61 169.60 C 428.06 171.53 428.49 173.46 428.83 175.41 C 429.17 177.35 429.46 179.31 429.68 181.27 C 429.89 183.24 430.02 185.21 430.09 187.19 C 430.17 189.16 430.16 191.14 430.12 193.11 C 430.07 195.08 429.96 197.04 429.85 198.99 C 429.73 200.93 429.57 202.86 429.45 204.76 C 429.32 206.66 429.18 208.54 429.09 210.39 C 429.01 212.25 428.94 214.08 428.94 215.89 C 428.93 217.70 428.98 219.48 429.06 221.26 C 429.14 223.04 429.29 224.80 429.45 226.57 C 429.60 228.33 429.81 230.09 430.00 231.85 C 430.18 233.61 430.41 235.38 430.54 237.14 C 430.67 238.91 430.79 240.69 430.77 242.46 Z"/></svg>