<svg xmlns="http://www.w3.org/2000/svg" viewBox="0 0 512 512" width="512" height="512"><path fill="#0a0a0a" d="M 425.88 248.47 C 425.63 250.23 425.36 251.98 424.98 253.72 C 424.60 255.45 424.15 257.18 423.61 258.88 C 423.06 260.58 422.42 262.27 421.72 263.92 C 421.02 265.58 420.22 267.21 419.40 268.81 C 418.57 270.41 417.68 271.98 416.79 273.53 C 415.91 275.08 414.97 276.59 414.10 278.10 C 413.24 279.62 412.36 281.10 411.59 282.60 C 410.82 284.11 410.10 285.60 409.49 287.12 C 408.89 288.65 408.37 290.19 407.95 291.77 C 407.54 293.35 407.23 294.96 406.99 296.62 C 406.75 298.28 406.63 299.99 406.51 301.73 C 406.40 303.47 406.37 305.26 406.29 307.06 C 406.22 308.86 406.19 310.71 406.04 312.53 C 405.90 314.36 405.75 316.21 405.45 317.99 C 405.15 319.78 404.78 321.57 404.23 323.26 C 403.69 324.95 403.03 326.61 402.20 328.15 C 401.38 329.69 400.40 331.16 399.29 332.51 C 398.19 333.87 396.91 335.12 395.57 336.29 C 394.22 337.46 392.73 338.51 391.22 339.51 C 389.71 340.51 388.09 341.40 386.51 342.29 C 384.93 343.18 383.29 343.99 381.74 344.85 C 380.18 345.71 378.63 346.53 377.17 347.43 C 375.71 348.33 374.33 349.27 372.99 350.26 C 371.66 351.25 370.33 352.22 369.16 353.38 C 367.98 354.54 366.89 355.76 365.94 357.21 C 364.98 358.65 364.19 360.29 363.43 362.04 C 362.66 363.80 362.02 365.73 361.35 367.74 C 360.68 369.75 360.09 371.91 359.43 374.09 C 358.77 376.27 358.13 378.57 357.39 380.81 C 356.66 383.06 355.89 385.37 355.01 387.57 C 354.12 389.78 353.17 391.98 352.10 394.04 C 351.03 396.10 349.85 398.10 348.57 399.94 C 347.29 401.77 345.89 403.49 344.40 405.03 C 342.91 406.57 341.31 407.97 339.63 409.19 C 337.96 410.41 336.18 411.47 334.34 412.36 C 332.51 413.24 330.60 413.96 328.65 414.51 C 326.70 415.07 324.68 415.45 322.64 415.68 C 320.61 415.91 318.52 415.98 316.44 415.88 C 314.35 415.79 312.23 415.53 310.12 415.12 C 308.01 414.70 305.88 414.12 303.77 413.39 C 301.67 412.65 299.56 411.74 297.49 410.69 C 295.43 409.64 293.37 408.41 291.37 407.08 C 289.36 405.74 287.39 404.22 285.48 402.68 C 283.57 401.13 281.71 399.34 279.91 397.81 C 278.11 396.28 276.38 395.12 274.70 393.48 C 273.01 391.84 271.37 390.02 269.82 387.97 C 268.28 385.91 266.80 383.49 265.42 381.13 C 264.04 378.76 262.74 376.21 261.53 373.76 C 260.31 371.30 259.19 368.78 258.12 366.40 C 257.05 364.02 256.07 361.66 255.12 359.46 C 254.17 357.27 253.29 355.18 252.42 353.25 C 251.55 351.32 250.73 349.54 249.90 347.91 C 249.08 346.27 248.28 344.79 247.47 343.42 C 246.66 342.05 245.86 340.83 245.07 339.66 C 244.27 338.49 243.47 337.45 242.69 336.41 C 241.91 335.37 241.13 334.40 240.38 333.40 C 239.63 332.41 238.90 331.44 238.21 330.42 C 237.52 329.41 236.86 328.38 236.24 327.32 C 235.62 326.25 235.05 325.15 234.51 324.05 C 233.97 322.94 233.48 321.80 233.00 320.70 C 232.51 319.60 232.07 318.47 231.60 317.44 C 231.12 316.41 230.67 315.40 230.14 314.53 C 229.61 313.65 229.07 312.84 228.40 312.19 C 227.73 311.54 227.01 311.01 226.12 310.64 C 225.24 310.27 224.25 310.05 223.08 309.98 C 221.91 309.91 220.60 310.01 219.10 310.22 C 217.60 310.43 215.93 310.80 214.10 311.22 C 212.26 311.65 210.24 312.22 208.11 312.78 C 205.97 313.34 203.65 313.99 201.27 314.58 C 198.89 315.18 196.36 315.81 193.82 316.34 C 191.27 316.87 188.63 317.38 186.02 317.75 C 183.41 318.13 180.75 318.44 178.16 318.61 C 175.58 318.77 172.99 318.83 170.50 318.75 C 168.01 318.67 165.56 318.47 163.21 318.13 C 160.87 317.80 158.59 317.33 156.42 316.76 C 154.25 316.18 152.16 315.48 150.18 314.68 C 148.20 313.87 146.29 312.97 144.55 311.95 C 142.82 310.92 141.25 309.76 139.78 308.54 C 138.31 307.32 137.29 305.87 135.74 304.61 C 134.18 303.35 132.30 302.20 130.43 300.98 C 128.57 299.75 126.56 298.54 124.54 297.26 C 122.53 295.98 120.42 294.68 118.35 293.30 C 116.27 291.93 114.15 290.51 112.12 289.01 C 110.08 287.51 108.05 285.94 106.13 284.30 C 104.21 282.66 102.35 280.95 100.62 279.16 C 98.90 277.38 97.27 275.53 95.78 273.62 C 94.30 271.70 92.94 269.72 91.71 267.70 C 90.48 265.68 89.39 263.60 88.41 261.50 C 87.42 259.39 86.58 257.24 85.81 255.07 C 85.03 252.90 84.38 250.69 83.78 248.47 C 83.17 246.25 82.66 244.01 82.19 241.75 C 81.71 239.49 81.30 237.21 80.93 234.92 C 80.56 232.63 80.23 230.32 79.97 228.00 C 79.71 225.69 79.48 223.35 79.35 221.02 C 79.22 218.68 79.15 216.33 79.21 214.00 C 79.27 211.67 79.41 209.33 79.73 207.03 C 80.05 204.73 80.48 202.43 81.12 200.21 C 81.75 197.98 82.55 195.77 83.55 193.66 C 84.55 191.55 85.74 189.48 87.12 187.52 C 88.49 185.56 90.08 183.68 91.82 181.91 C 93.55 180.13 95.49 178.46 97.51 176.88 C 99.53 175.31 101.74 173.84 103.96 172.45 C 106.18 171.07 108.54 169.79 110.85 168.56 C 113.16 167.33 115.54 166.19 117.84 165.07 C 120.14 163.95 122.44 162.89 124.63 161.83 C 126.82 160.76 128.96 159.73 130.99 158.67 C 133.02 157.61 134.96 156.56 136.82 155.47 C 138.68 154.39 140.43 153.28 142.14 152.17 C 143.86 151.05 145.47 149.90 147.10 148.78 C 148.72 147.65 150.28 146.51 151.89 145.42 C 153.49 144.34 155.08 143.25 156.75 142.27 C 158.41 141.28 160.10 140.34 161.87 139.51 C 163.63 138.68 165.48 137.97 167.32 137.27 C 169.15 136.58 170.94 135.88 172.86 135.37 C 174.78 134.86 176.60 134.24 178.82 134.22 C 181.05 134.19 183.64 134.63 186.23 135.24 C 188.82 135.85 191.59 136.79 194.35 137.89 C 197.11 139.00 199.99 140.38 202.79 141.86 C 205.59 143.34 208.43 145.05 211.16 146.79 C 213.88 148.52 216.59 150.41 219.15 152.27 C 221.72 154.12 224.20 156.06 226.54 157.90 C 228.88 159.75 231.10 161.60 233.17 163.33 C 235.24 165.06 237.18 166.74 238.99 168.27 C 240.79 169.79 242.45 171.23 244.00 172.49 C 245.55 173.76 246.96 174.90 248.27 175.88 C 249.59 176.85 250.78 177.68 251.91 178.33 C 253.03 178.99 254.04 179.49 255.01 179.80 C 255.97 180.12 256.84 180.28 257.68 180.24 C 258.52 180.20 259.29 179.99 260.05 179.57 C 260.81 179.16 261.51 178.56 262.22 177.74 C 262.94 176.92 263.61 175.90 264.32 174.67 C 265.03 173.43 265.73 171.98 266.48 170.33 C 267.24 168.67 268.00 166.79 268.84 164.75 C 269.68 162.70 270.56 160.43 271.54 158.05 C 272.51 155.68 273.55 153.10 274.70 150.48 C 275.84 147.87 277.07 145.10 278.40 142.38 C 279.73 139.66 281.17 136.84 282.69 134.16 C 284.21 131.48 285.84 128.79 287.54 126.31 C 289.23 123.82 291.03 121.41 292.85 119.27 C 294.68 117.12 296.60 115.13 298.50 113.44 C 300.41 111.75 302.38 110.28 304.31 109.14 C 306.24 108.01 308.21 107.07 310.06 106.62 C 311.91 106.18 313.60 106.56 315.41 106.47 C 317.23 106.38 319.07 106.26 320.96 106.07 C 322.86 105.88 324.80 105.62 326.79 105.35 C 328.78 105.08 330.80 104.78 332.89 104.45 C 334.97 104.11 337.11 103.74 339.32 103.32 C 341.54 102.90 343.81 102.42 346.17 101.92 C 348.53 101.43 350.96 100.87 353.47 100.32 C 355.97 99.78 358.56 99.19 361.18 98.67 C 363.80 98.16 366.51 97.62 369.21 97.22 C 371.90 96.82 374.66 96.45 377.36 96.27 C 380.05 96.08 382.78 95.99 385.39 96.12 C 388.00 96.25 390.58 96.52 393.01 97.03 C 395.45 97.54 397.80 98.24 399.98 99.16 C 402.16 100.08 404.21 101.23 406.08 102.56 C 407.94 103.89 409.65 105.44 411.18 107.13 C 412.72 108.83 414.07 110.73 415.29 112.70 C 416.50 114.68 417.54 116.83 418.48 119.01 C 419.42 121.19 420.20 123.48 420.93 125.77 C 421.65 128.05 422.26 130.41 422.85 132.72 C 423.44 135.03 423.95 137.37 424.47 139.66 C 424.98 141.94 425.46 144.22 425.95 146.45 C 426.44 148.68 426.92 150.88 427.40 153.05 C 427.89 155.22 428.38 157.35 428.85 159.47 C 429.32 161.59 429.80 163.68 430.23 165.77 C 430.66 167.87 431.08 169.94 431.43 172.03 C 431.78 174.11 432.09 176.20 432.32 178.29 C 432.54 180.39 432.71 182.49 432.79 184.60 C 432.87 186.70 432.87 188.82 432.79 190.93 C 432.72 193.04 432.55 195.15 432.34 197.25 C 432.13 199.34 431.84 201.44 431.53 203.50 C 431.23 205.56 430.86 207.61 430.51 209.62 C 430.16 211.63 429.78 213.62 429.45 215.58 C 429.11 217.53 428.78 219.46 428.49 221.35 C 428.20 223.25 427.95 225.11 427.74 226.96 C 427.52 228.81 427.35 230.63 427.20 232.44 C 427.04 234.25 426.94 236.05 426.81 237.83 C 426.68 239.62 426.58 241.40 426.43 243.17 C 426.27 244.94 426.12 246.71 425.88 248.47 Z"/></svg>