<svg xmlns="http://www.w3.org/2000/svg" viewBox="0 0 512 512" width="512" height="512"><path fill="#0a0a0a" d="M 438.98 242.82 C 438.87 244.58 438.71 246.35 438.47 248.10 C 438.23 249.85 437.92 251.60 437.56 253.33 C 437.19 255.06 436.75 256.78 436.28 258.49 C 435.81 260.19 435.27 261.88 434.75 263.56 C 434.23 265.24 433.67 266.89 433.16 268.56 C 432.65 270.22 432.14 271.87 431.71 273.54 C 431.28 275.21 430.89 276.87 430.57 278.57 C 430.25 280.26 429.97 281.96 429.80 283.71 C 429.63 285.47 429.54 287.23 429.57 289.08 C 429.60 290.93 429.79 292.84 429.98 294.79 C 430.16 296.74 430.46 298.76 430.69 300.80 C 430.91 302.83 431.19 304.93 431.34 307.00 C 431.49 309.08 431.63 311.19 431.59 313.25 C 431.54 315.30 431.42 317.37 431.09 319.34 C 430.77 321.30 430.30 323.24 429.63 325.06 C 428.97 326.88 428.12 328.63 427.11 330.26 C 426.11 331.88 424.90 333.41 423.59 334.82 C 422.27 336.24 420.78 337.54 419.24 338.77 C 417.71 339.99 416.03 341.10 414.38 342.19 C 412.73 343.29 410.99 344.28 409.34 345.32 C 407.68 346.35 406.01 347.33 404.45 348.41 C 402.90 349.48 401.38 350.56 400.00 351.76 C 398.61 352.97 397.32 354.23 396.14 355.64 C 394.95 357.05 393.89 358.57 392.90 360.24 C 391.92 361.90 391.05 363.70 390.22 365.61 C 389.38 367.53 388.65 369.59 387.89 371.72 C 387.13 373.85 386.44 376.11 385.67 378.38 C 384.91 380.65 384.16 383.01 383.30 385.32 C 382.45 387.63 381.56 389.99 380.55 392.24 C 379.54 394.48 378.45 396.72 377.24 398.80 C 376.02 400.88 374.70 402.89 373.27 404.73 C 371.84 406.56 370.28 408.28 368.63 409.81 C 366.98 411.34 365.21 412.72 363.36 413.92 C 361.52 415.12 359.56 416.15 357.56 417.00 C 355.55 417.86 353.46 418.54 351.33 419.05 C 349.20 419.57 347.00 419.91 344.78 420.09 C 342.56 420.27 340.30 420.29 338.03 420.14 C 335.76 419.99 333.45 419.68 331.16 419.20 C 328.86 418.71 326.55 418.07 324.26 417.25 C 321.97 416.43 319.67 415.43 317.41 414.28 C 315.16 413.12 312.91 411.78 310.72 410.32 C 308.53 408.86 306.37 407.20 304.28 405.51 C 302.19 403.82 300.15 401.85 298.19 400.19 C 296.22 398.52 294.35 397.32 292.51 395.52 C 290.68 393.71 288.88 391.70 287.18 389.37 C 285.49 387.03 283.85 384.26 282.34 381.50 C 280.82 378.75 279.40 375.75 278.09 372.83 C 276.77 369.91 275.57 366.86 274.45 363.96 C 273.33 361.06 272.31 358.14 271.36 355.41 C 270.40 352.67 269.54 350.01 268.71 347.55 C 267.89 345.08 267.13 342.76 266.39 340.62 C 265.65 338.48 264.96 336.52 264.27 334.70 C 263.58 332.88 262.92 331.25 262.27 329.71 C 261.61 328.17 260.96 326.80 260.33 325.47 C 259.69 324.14 259.06 322.93 258.46 321.74 C 257.85 320.54 257.25 319.42 256.69 318.29 C 256.12 317.16 255.58 316.06 255.06 314.96 C 254.55 313.85 254.06 312.75 253.60 311.67 C 253.13 310.59 252.71 309.50 252.27 308.48 C 251.83 307.45 251.43 306.43 250.98 305.52 C 250.53 304.61 250.10 303.73 249.57 303.00 C 249.05 302.28 248.51 301.63 247.83 301.15 C 247.16 300.68 246.43 300.33 245.53 300.15 C 244.63 299.97 243.63 299.95 242.44 300.08 C 241.25 300.22 239.92 300.52 238.41 300.94 C 236.90 301.36 235.21 301.95 233.36 302.59 C 231.52 303.23 229.49 304.01 227.34 304.78 C 225.20 305.55 222.88 306.42 220.49 307.22 C 218.10 308.02 215.57 308.86 213.03 309.59 C 210.48 310.31 207.84 311.02 205.23 311.59 C 202.61 312.16 199.95 312.65 197.35 313.00 C 194.76 313.35 192.16 313.59 189.64 313.69 C 187.12 313.79 184.63 313.76 182.22 313.61 C 179.82 313.46 177.47 313.18 175.18 312.80 C 172.89 312.43 170.67 311.92 168.49 311.35 C 166.30 310.77 164.18 310.08 162.08 309.33 C 159.99 308.58 157.93 307.75 155.93 306.83 C 153.92 305.92 151.89 304.96 150.06 303.87 C 148.23 302.78 146.64 301.53 144.95 300.28 C 143.26 299.04 141.84 297.67 139.92 296.42 C 138.00 295.16 135.70 294.02 133.45 292.77 C 131.19 291.52 128.77 290.27 126.38 288.93 C 123.99 287.58 121.52 286.20 119.13 284.72 C 116.74 283.24 114.33 281.69 112.04 280.05 C 109.74 278.41 107.49 276.68 105.37 274.87 C 103.26 273.07 101.23 271.18 99.33 269.22 C 97.43 267.26 95.66 265.22 94.00 263.12 C 92.34 261.03 90.81 258.86 89.38 256.65 C 87.95 254.44 86.64 252.17 85.41 249.86 C 84.18 247.56 83.05 245.20 81.99 242.82 C 80.94 240.43 79.96 238.00 79.06 235.55 C 78.16 233.10 77.33 230.60 76.59 228.09 C 75.86 225.58 75.18 223.03 74.64 220.48 C 74.10 217.92 73.63 215.34 73.33 212.76 C 73.04 210.19 72.84 207.59 72.86 205.03 C 72.87 202.46 73.03 199.89 73.41 197.38 C 73.80 194.87 74.37 192.37 75.17 189.96 C 75.97 187.54 76.99 185.17 78.21 182.90 C 79.44 180.62 80.90 178.42 82.52 176.32 C 84.15 174.22 86.00 172.21 87.95 170.30 C 89.90 168.39 92.05 166.59 94.23 164.86 C 96.41 163.13 98.74 161.51 101.02 159.93 C 103.31 158.36 105.67 156.87 107.95 155.40 C 110.23 153.93 112.52 152.52 114.69 151.10 C 116.86 149.68 118.98 148.29 120.99 146.87 C 123.00 145.44 124.91 144.02 126.74 142.56 C 128.57 141.11 130.29 139.62 131.97 138.13 C 133.66 136.63 135.24 135.10 136.85 133.59 C 138.46 132.09 140.00 130.55 141.62 129.09 C 143.24 127.63 144.85 126.17 146.59 124.85 C 148.32 123.52 150.10 122.23 152.02 121.12 C 153.95 120.01 155.97 119.00 158.12 118.19 C 160.28 117.38 162.57 116.72 164.96 116.25 C 167.35 115.79 169.89 115.52 172.46 115.41 C 175.04 115.30 177.75 115.41 180.41 115.58 C 183.07 115.74 185.85 116.16 188.42 116.41 C 190.99 116.66 193.24 116.57 195.82 117.08 C 198.41 117.58 201.21 118.45 203.94 119.41 C 206.68 120.38 209.50 121.61 212.22 122.85 C 214.93 124.09 217.64 125.49 220.23 126.85 C 222.81 128.21 225.34 129.65 227.74 131.02 C 230.13 132.38 232.44 133.76 234.62 135.05 C 236.81 136.34 238.88 137.60 240.85 138.75 C 242.82 139.90 244.67 140.99 246.44 141.97 C 248.20 142.95 249.86 143.84 251.44 144.62 C 253.02 145.40 254.51 146.08 255.93 146.63 C 257.35 147.18 258.68 147.63 259.97 147.92 C 261.26 148.22 262.47 148.40 263.64 148.40 C 264.81 148.40 265.92 148.27 267.01 147.94 C 268.10 147.60 269.14 147.11 270.18 146.40 C 271.22 145.70 272.22 144.80 273.25 143.70 C 274.28 142.60 275.29 141.29 276.35 139.79 C 277.41 138.29 278.48 136.57 279.62 134.72 C 280.76 132.87 281.94 130.81 283.20 128.69 C 284.46 126.56 285.77 124.26 287.18 121.98 C 288.59 119.71 290.08 117.31 291.64 115.02 C 293.21 112.73 294.87 110.40 296.59 108.26 C 298.31 106.13 300.12 104.03 301.96 102.19 C 303.80 100.35 305.72 98.64 307.64 97.23 C 309.56 95.81 311.54 94.59 313.47 93.70 C 315.41 92.80 317.39 92.12 319.27 91.86 C 321.15 91.61 322.90 92.07 324.74 92.17 C 326.58 92.27 328.43 92.37 330.30 92.46 C 332.16 92.55 334.05 92.62 335.96 92.70 C 337.86 92.79 339.78 92.89 341.73 92.95 C 343.68 93.01 345.65 93.08 347.67 93.09 C 349.70 93.11 351.75 93.09 353.87 93.04 C 355.98 92.99 358.14 92.89 360.35 92.79 C 362.56 92.70 364.83 92.55 367.13 92.46 C 369.42 92.37 371.78 92.25 374.12 92.24 C 376.46 92.23 378.84 92.24 381.17 92.41 C 383.49 92.57 385.84 92.81 388.08 93.23 C 390.32 93.66 392.53 94.21 394.60 94.96 C 396.68 95.71 398.68 96.63 400.53 97.74 C 402.37 98.85 404.10 100.15 405.68 101.60 C 407.25 103.05 408.67 104.70 409.96 106.46 C 411.25 108.21 412.37 110.14 413.40 112.12 C 414.42 114.10 415.29 116.21 416.10 118.32 C 416.91 120.43 417.59 122.63 418.26 124.79 C 418.93 126.95 419.52 129.14 420.12 131.27 C 420.73 133.39 421.29 135.51 421.90 137.56 C 422.51 139.61 423.13 141.62 423.78 143.57 C 424.44 145.52 425.13 147.42 425.85 149.28 C 426.57 151.15 427.34 152.95 428.11 154.76 C 428.87 156.56 429.68 158.32 430.45 160.10 C 431.22 161.88 432.01 163.64 432.72 165.43 C 433.44 167.22 434.14 169.02 434.75 170.85 C 435.35 172.67 435.91 174.52 436.36 176.40 C 436.82 178.27 437.19 180.18 437.48 182.09 C 437.77 184.01 437.96 185.95 438.10 187.89 C 438.24 189.82 438.28 191.78 438.31 193.71 C 438.34 195.65 438.29 197.59 438.28 199.49 C 438.27 201.40 438.21 203.29 438.26 205.15 C 438.31 207.01 438.51 208.81 438.59 210.64 C 438.66 212.46 438.66 214.29 438.69 216.10 C 438.72 217.92 438.73 219.72 438.77 221.51 C 438.81 223.31 438.86 225.09 438.91 226.87 C 438.96 228.65 439.04 230.42 439.07 232.20 C 439.11 233.97 439.16 235.74 439.14 237.51 C 439.13 239.28 439.09 241.05 438.98 242.82 Z"/></svg>