<svg xmlns="http://www.w3.org/2000/svg" viewBox="0 0 512 512" width="512" height="512"><path fill="#0a0a0a" d="M 443.60 241.96 C 443.60 243.81 443.55 245.66 443.39 247.50 C 443.23 249.33 442.98 251.17 442.64 252.99 C 442.30 254.80 441.85 256.61 441.34 258.40 C 440.82 260.18 440.20 261.94 439.55 263.68 C 438.90 265.43 438.17 267.14 437.42 268.84 C 436.67 270.54 435.80 272.19 435.07 273.86 C 434.33 275.53 433.59 277.18 433.00 278.87 C 432.42 280.55 431.93 282.24 431.55 283.99 C 431.17 285.73 430.91 287.49 430.75 289.32 C 430.58 291.15 430.55 293.02 430.57 294.95 C 430.59 296.88 430.73 298.86 430.86 300.90 C 431.00 302.93 431.23 305.03 431.38 307.14 C 431.54 309.25 431.74 311.42 431.80 313.56 C 431.87 315.71 431.91 317.89 431.78 320.01 C 431.65 322.12 431.42 324.24 431.01 326.26 C 430.60 328.28 430.04 330.26 429.29 332.13 C 428.55 333.99 427.62 335.77 426.54 337.43 C 425.46 339.09 424.18 340.64 422.81 342.09 C 421.43 343.53 419.88 344.85 418.29 346.10 C 416.70 347.35 414.96 348.47 413.25 349.58 C 411.54 350.68 409.74 351.69 408.02 352.73 C 406.29 353.77 404.54 354.75 402.90 355.81 C 401.25 356.88 399.64 357.94 398.13 359.11 C 396.63 360.29 395.20 361.52 393.87 362.88 C 392.54 364.24 391.32 365.70 390.15 367.28 C 388.99 368.87 387.94 370.58 386.90 372.39 C 385.87 374.20 384.92 376.15 383.95 378.15 C 382.98 380.15 382.06 382.28 381.08 384.41 C 380.10 386.53 379.13 388.75 378.07 390.91 C 377.01 393.07 375.92 395.27 374.72 397.36 C 373.52 399.46 372.26 401.54 370.88 403.48 C 369.51 405.42 368.04 407.29 366.47 409.00 C 364.90 410.70 363.23 412.30 361.47 413.71 C 359.71 415.13 357.85 416.40 355.92 417.49 C 353.99 418.57 351.96 419.50 349.89 420.25 C 347.82 420.99 345.67 421.56 343.49 421.96 C 341.31 422.36 339.06 422.58 336.81 422.63 C 334.55 422.68 332.25 422.55 329.95 422.25 C 327.65 421.94 325.33 421.46 323.02 420.80 C 320.71 420.15 318.38 419.31 316.10 418.30 C 313.81 417.29 311.52 416.10 309.29 414.77 C 307.05 413.43 304.84 411.90 302.69 410.30 C 300.55 408.69 298.44 406.86 296.41 405.14 C 294.38 403.42 292.42 401.71 290.52 399.98 C 288.62 398.24 286.77 396.85 285.00 394.73 C 283.24 392.61 281.52 389.93 279.93 387.27 C 278.33 384.61 276.83 381.68 275.44 378.78 C 274.04 375.89 272.75 372.83 271.56 369.89 C 270.36 366.95 269.28 363.95 268.26 361.12 C 267.24 358.29 266.32 355.50 265.44 352.91 C 264.56 350.32 263.76 347.85 262.98 345.57 C 262.20 343.29 261.47 341.18 260.75 339.24 C 260.02 337.30 259.33 335.55 258.63 333.92 C 257.94 332.30 257.25 330.86 256.57 329.48 C 255.88 328.11 255.20 326.89 254.53 325.69 C 253.86 324.50 253.19 323.40 252.55 322.29 C 251.91 321.19 251.28 320.13 250.68 319.05 C 250.09 317.96 249.52 316.89 248.99 315.79 C 248.46 314.70 247.97 313.59 247.51 312.48 C 247.04 311.38 246.62 310.26 246.19 309.18 C 245.77 308.11 245.38 307.03 244.96 306.05 C 244.53 305.07 244.12 304.12 243.62 303.31 C 243.12 302.50 242.61 301.77 241.97 301.19 C 241.32 300.62 240.62 300.17 239.75 299.88 C 238.88 299.60 237.90 299.47 236.74 299.48 C 235.57 299.50 234.26 299.69 232.76 299.99 C 231.25 300.29 229.57 300.76 227.72 301.28 C 225.87 301.80 223.83 302.47 221.66 303.14 C 219.48 303.80 217.13 304.57 214.68 305.28 C 212.24 305.99 209.64 306.75 207.01 307.41 C 204.38 308.07 201.63 308.72 198.89 309.25 C 196.15 309.77 193.34 310.24 190.58 310.57 C 187.81 310.90 185.03 311.13 182.31 311.23 C 179.59 311.33 176.89 311.31 174.26 311.16 C 171.63 311.02 169.04 310.75 166.53 310.37 C 164.01 309.98 161.55 309.48 159.16 308.88 C 156.77 308.27 154.43 307.56 152.17 306.75 C 149.92 305.94 147.70 305.03 145.62 304.02 C 143.53 303.01 141.43 301.93 139.67 300.68 C 137.91 299.44 136.76 297.90 135.06 296.54 C 133.35 295.18 131.44 293.87 129.44 292.51 C 127.44 291.15 125.23 289.82 123.06 288.40 C 120.89 286.98 118.61 285.53 116.41 284.00 C 114.20 282.47 111.96 280.87 109.81 279.20 C 107.67 277.53 105.55 275.78 103.54 273.96 C 101.53 272.14 99.59 270.24 97.77 268.28 C 95.94 266.32 94.22 264.28 92.60 262.19 C 90.98 260.10 89.48 257.94 88.06 255.74 C 86.65 253.53 85.34 251.28 84.10 248.98 C 82.85 246.68 81.71 244.34 80.61 241.96 C 79.51 239.59 78.49 237.17 77.51 234.72 C 76.53 232.27 75.61 229.78 74.74 227.26 C 73.87 224.74 73.05 222.19 72.31 219.61 C 71.58 217.03 70.89 214.42 70.33 211.79 C 69.77 209.17 69.27 206.51 68.95 203.87 C 68.63 201.22 68.41 198.55 68.40 195.92 C 68.39 193.29 68.53 190.66 68.91 188.09 C 69.28 185.51 69.84 182.96 70.64 180.50 C 71.44 178.03 72.46 175.62 73.69 173.31 C 74.92 170.99 76.40 168.76 78.03 166.63 C 79.67 164.51 81.54 162.48 83.52 160.56 C 85.49 158.63 87.66 156.82 89.87 155.08 C 92.07 153.35 94.43 151.73 96.75 150.15 C 99.08 148.57 101.49 147.09 103.82 145.63 C 106.15 144.16 108.49 142.76 110.74 141.35 C 112.98 139.94 115.18 138.57 117.29 137.16 C 119.39 135.76 121.41 134.36 123.36 132.93 C 125.30 131.50 127.15 130.05 128.97 128.60 C 130.79 127.14 132.52 125.66 134.27 124.20 C 136.03 122.75 137.73 121.27 139.50 119.87 C 141.27 118.47 143.03 117.08 144.90 115.82 C 146.78 114.56 148.69 113.34 150.73 112.30 C 152.77 111.26 154.90 110.31 157.15 109.56 C 159.39 108.81 161.75 108.21 164.20 107.80 C 166.64 107.38 169.22 107.16 171.82 107.08 C 174.42 107.00 177.14 107.14 179.82 107.33 C 182.49 107.53 185.28 107.98 187.85 108.24 C 190.42 108.50 192.69 108.43 195.24 108.89 C 197.79 109.34 200.47 110.07 203.15 110.97 C 205.83 111.87 208.62 113.08 211.30 114.30 C 213.98 115.52 216.66 116.91 219.24 118.28 C 221.81 119.64 224.33 121.10 226.74 122.50 C 229.14 123.90 231.46 125.33 233.67 126.68 C 235.88 128.02 237.99 129.35 240.00 130.57 C 242.00 131.79 243.90 132.96 245.71 134.02 C 247.52 135.07 249.23 136.05 250.86 136.89 C 252.49 137.74 254.03 138.49 255.50 139.09 C 256.98 139.69 258.36 140.18 259.70 140.50 C 261.04 140.82 262.31 141.01 263.54 141.01 C 264.78 141.01 265.95 140.85 267.11 140.49 C 268.27 140.13 269.38 139.60 270.51 138.85 C 271.64 138.10 272.73 137.16 273.87 136.02 C 275.00 134.88 276.13 133.52 277.31 132.01 C 278.50 130.50 279.70 128.77 280.99 126.95 C 282.27 125.12 283.59 123.11 285.00 121.06 C 286.41 119.02 287.89 116.83 289.45 114.70 C 291.00 112.57 292.64 110.35 294.35 108.28 C 296.06 106.20 297.85 104.12 299.69 102.25 C 301.52 100.38 303.44 98.58 305.37 97.04 C 307.30 95.51 309.29 94.13 311.26 93.02 C 313.24 91.92 315.25 91.03 317.21 90.42 C 319.18 89.82 321.15 89.44 323.05 89.37 C 324.94 89.30 326.78 89.62 328.58 90.01 C 330.37 90.39 332.05 91.20 333.83 91.68 C 335.61 92.16 337.43 92.53 339.26 92.90 C 341.08 93.28 342.92 93.65 344.80 93.95 C 346.69 94.26 348.59 94.53 350.55 94.74 C 352.52 94.94 354.52 95.09 356.59 95.18 C 358.66 95.28 360.79 95.30 362.98 95.31 C 365.17 95.32 367.42 95.26 369.71 95.25 C 372.00 95.23 374.35 95.17 376.70 95.21 C 379.05 95.25 381.45 95.30 383.80 95.49 C 386.15 95.68 388.52 95.93 390.78 96.37 C 393.05 96.80 395.30 97.35 397.41 98.09 C 399.52 98.83 401.56 99.73 403.44 100.81 C 405.32 101.90 407.09 103.17 408.70 104.59 C 410.30 106.01 411.76 107.62 413.07 109.34 C 414.38 111.07 415.53 112.96 416.57 114.91 C 417.60 116.87 418.47 118.96 419.28 121.06 C 420.08 123.17 420.74 125.37 421.37 127.54 C 422.00 129.71 422.53 131.93 423.06 134.10 C 423.60 136.27 424.07 138.44 424.57 140.56 C 425.07 142.68 425.55 144.78 426.06 146.82 C 426.57 148.87 427.09 150.87 427.64 152.83 C 428.19 154.80 428.76 156.72 429.34 158.63 C 429.92 160.54 430.53 162.41 431.11 164.28 C 431.70 166.15 432.30 167.99 432.86 169.85 C 433.42 171.71 433.97 173.55 434.47 175.42 C 434.97 177.28 435.44 179.14 435.85 181.02 C 436.26 182.89 436.63 184.78 436.95 186.66 C 437.27 188.54 437.54 190.44 437.79 192.32 C 438.04 194.20 438.24 196.09 438.46 197.96 C 438.68 199.83 438.85 201.70 439.11 203.54 C 439.36 205.39 439.69 207.20 439.97 209.02 C 440.25 210.85 440.53 212.67 440.78 214.50 C 441.03 216.32 441.25 218.15 441.48 219.97 C 441.71 221.80 441.95 223.62 442.18 225.44 C 442.41 227.27 442.65 229.10 442.85 230.93 C 443.04 232.76 443.24 234.59 443.37 236.43 C 443.49 238.27 443.59 240.12 443.60 241.96 Z"/></svg>