<svg xmlns="http://www.w3.org/2000/svg" viewBox="0 0 512 512" width="512" height="512"><path fill="#0a0a0a" d="M 440.41 240.98 C 439.45 243.02 438.39 245.03 437.19 246.99 C 435.99 248.95 434.65 250.88 433.21 252.74 C 431.77 254.61 430.18 256.42 428.53 258.17 C 426.88 259.92 425.10 261.61 423.32 263.23 C 421.54 264.86 419.65 266.42 417.84 267.93 C 416.03 269.45 414.16 270.89 412.44 272.32 C 410.71 273.75 408.99 275.12 407.47 276.51 C 405.96 277.89 404.52 279.24 403.36 280.66 C 402.19 282.07 401.43 283.57 400.49 285.00 C 399.54 286.44 398.59 287.85 397.70 289.28 C 396.81 290.71 395.98 292.14 395.17 293.57 C 394.35 295.01 393.60 296.46 392.82 297.89 C 392.03 299.32 391.28 300.77 390.45 302.17 C 389.62 303.57 388.78 304.97 387.83 306.29 C 386.89 307.62 385.89 308.92 384.78 310.14 C 383.67 311.35 382.46 312.51 381.17 313.58 C 379.88 314.64 378.48 315.63 377.03 316.55 C 375.57 317.46 374.02 318.28 372.46 319.06 C 370.91 319.84 369.27 320.53 367.70 321.22 C 366.12 321.92 364.52 322.54 363.01 323.23 C 361.51 323.92 360.03 324.57 358.69 325.34 C 357.34 326.11 356.07 326.90 354.95 327.85 C 353.82 328.79 352.81 329.81 351.93 331.00 C 351.04 332.19 350.30 333.51 349.65 335.00 C 349.00 336.48 348.48 338.13 348.01 339.91 C 347.53 341.69 347.17 343.64 346.79 345.68 C 346.41 347.71 346.11 349.91 345.73 352.10 C 345.35 354.30 344.99 356.63 344.50 358.85 C 344.01 361.08 343.50 363.40 342.78 365.46 C 342.06 367.52 341.06 369.22 340.18 371.21 C 339.30 373.19 338.47 375.33 337.52 377.38 C 336.58 379.43 335.60 381.53 334.51 383.51 C 333.42 385.48 332.26 387.42 331.00 389.23 C 329.74 391.03 328.39 392.76 326.96 394.34 C 325.52 395.92 324.00 397.39 322.41 398.72 C 320.82 400.04 319.14 401.24 317.41 402.29 C 315.68 403.33 313.87 404.25 312.03 405.00 C 310.18 405.75 308.27 406.36 306.34 406.79 C 304.40 407.22 302.41 407.50 300.41 407.60 C 298.41 407.69 296.37 407.62 294.33 407.35 C 292.30 407.09 290.23 406.64 288.19 406.02 C 286.15 405.39 284.10 404.57 282.09 403.60 C 280.08 402.63 278.08 401.46 276.13 400.19 C 274.18 398.93 272.27 397.47 270.41 396.02 C 268.55 394.57 266.75 392.92 265.00 391.49 C 263.24 390.07 261.53 388.95 259.88 387.48 C 258.23 386.00 256.63 384.33 255.09 382.65 C 253.55 380.98 252.08 379.12 250.66 377.40 C 249.23 375.67 247.88 373.92 246.54 372.31 C 245.20 370.69 243.92 369.14 242.65 367.73 C 241.37 366.33 240.13 365.03 238.88 363.87 C 237.62 362.70 236.39 361.68 235.14 360.73 C 233.89 359.79 232.64 358.98 231.39 358.20 C 230.13 357.41 228.87 356.73 227.62 356.00 C 226.38 355.28 225.12 354.61 223.92 353.84 C 222.71 353.07 221.51 352.30 220.39 351.39 C 219.26 350.49 218.16 349.52 217.16 348.42 C 216.16 347.31 215.22 346.09 214.38 344.76 C 213.54 343.43 212.78 341.97 212.11 340.44 C 211.45 338.91 210.88 337.25 210.38 335.58 C 209.88 333.91 209.48 332.14 209.11 330.42 C 208.74 328.70 208.45 326.94 208.14 325.28 C 207.83 323.62 207.57 321.97 207.25 320.46 C 206.92 318.96 206.61 317.52 206.19 316.25 C 205.77 314.97 205.31 313.82 204.72 312.81 C 204.14 311.80 203.47 310.95 202.66 310.21 C 201.86 309.48 200.94 308.90 199.89 308.40 C 198.85 307.90 197.67 307.55 196.39 307.23 C 195.12 306.91 193.71 306.70 192.24 306.49 C 190.77 306.28 189.18 306.13 187.57 305.95 C 185.95 305.77 184.25 305.62 182.54 305.41 C 180.83 305.19 179.07 304.97 177.31 304.69 C 175.56 304.40 173.79 304.08 172.02 303.69 C 170.26 303.31 168.50 302.87 166.74 302.38 C 164.97 301.89 163.22 301.35 161.45 300.76 C 159.69 300.18 157.92 299.54 156.13 298.86 C 154.35 298.19 152.55 297.47 150.72 296.72 C 148.90 295.96 147.05 295.17 145.17 294.33 C 143.30 293.49 141.39 292.62 139.49 291.69 C 137.59 290.76 135.65 289.79 133.76 288.75 C 131.87 287.71 129.96 286.62 128.16 285.44 C 126.37 284.26 124.52 283.04 123.02 281.69 C 121.51 280.34 120.46 278.82 119.13 277.35 C 117.80 275.88 116.48 274.38 115.05 272.85 C 113.62 271.33 112.05 269.80 110.56 268.21 C 109.07 266.62 107.56 264.99 106.10 263.31 C 104.64 261.63 103.21 259.91 101.80 258.13 C 100.39 256.36 99.02 254.54 97.64 252.68 C 96.27 250.82 94.93 248.92 93.56 246.97 C 92.19 245.02 90.83 243.03 89.44 240.98 C 88.04 238.94 86.63 236.85 85.19 234.70 C 83.75 232.56 82.27 230.36 80.79 228.10 C 79.31 225.84 77.79 223.53 76.30 221.15 C 74.82 218.77 73.31 216.33 71.90 213.84 C 70.48 211.35 69.07 208.80 67.82 206.21 C 66.56 203.63 65.37 200.98 64.37 198.34 C 63.38 195.69 62.50 193.00 61.87 190.34 C 61.23 187.67 60.77 184.99 60.55 182.36 C 60.34 179.73 60.34 177.11 60.59 174.56 C 60.83 172.02 61.31 169.52 62.00 167.10 C 62.69 164.68 63.62 162.33 64.70 160.06 C 65.78 157.79 67.08 155.60 68.48 153.49 C 69.87 151.37 71.44 149.34 73.05 147.37 C 74.66 145.39 76.40 143.49 78.14 141.63 C 79.87 139.76 81.68 137.96 83.47 136.18 C 85.26 134.40 87.08 132.65 88.88 130.93 C 90.69 129.21 92.49 127.51 94.30 125.85 C 96.12 124.18 97.93 122.53 99.79 120.95 C 101.65 119.37 103.52 117.81 105.48 116.35 C 107.44 114.90 109.44 113.49 111.57 112.24 C 113.70 110.99 115.90 109.82 118.25 108.85 C 120.60 107.88 123.07 107.04 125.67 106.43 C 128.27 105.83 131.02 105.39 133.87 105.20 C 136.72 105.00 139.73 105.02 142.79 105.25 C 145.84 105.48 149.04 105.96 152.22 106.58 C 155.40 107.20 158.68 108.07 161.85 108.97 C 165.03 109.86 168.31 111.07 171.26 111.96 C 174.20 112.85 176.75 113.31 179.53 114.28 C 182.32 115.24 185.10 116.30 187.99 117.75 C 190.88 119.19 193.95 121.09 196.86 122.97 C 199.77 124.84 202.69 126.94 205.46 129.01 C 208.23 131.08 210.94 133.27 213.49 135.39 C 216.05 137.50 218.50 139.66 220.80 141.73 C 223.11 143.79 225.29 145.83 227.33 147.76 C 229.38 149.69 231.29 151.56 233.08 153.29 C 234.87 155.02 236.53 156.67 238.08 158.16 C 239.64 159.64 241.07 161.02 242.41 162.22 C 243.75 163.42 244.98 164.48 246.14 165.34 C 247.29 166.20 248.35 166.91 249.35 167.38 C 250.36 167.86 251.27 168.16 252.16 168.21 C 253.06 168.26 253.88 168.10 254.70 167.71 C 255.52 167.31 256.29 166.68 257.10 165.82 C 257.90 164.97 258.68 163.87 259.51 162.59 C 260.35 161.31 261.19 159.79 262.10 158.15 C 263.02 156.52 263.97 154.66 265.00 152.76 C 266.03 150.87 267.12 148.80 268.29 146.77 C 269.46 144.74 270.70 142.61 272.02 140.60 C 273.33 138.58 274.73 136.54 276.17 134.66 C 277.62 132.79 279.14 130.97 280.68 129.36 C 282.23 127.74 283.84 126.25 285.45 124.96 C 287.07 123.67 288.72 122.56 290.37 121.62 C 292.01 120.68 293.68 119.94 295.33 119.33 C 296.98 118.71 298.63 118.28 300.28 117.92 C 301.94 117.55 303.58 117.34 305.24 117.13 C 306.90 116.92 308.55 116.82 310.25 116.66 C 311.94 116.50 313.65 116.39 315.41 116.20 C 317.18 116.02 318.98 115.81 320.84 115.55 C 322.71 115.30 324.65 114.94 326.60 114.68 C 328.54 114.42 330.42 114.35 332.51 114.01 C 334.60 113.66 336.77 113.20 339.11 112.61 C 341.46 112.01 343.99 111.18 346.57 110.44 C 349.15 109.69 351.87 108.85 354.60 108.14 C 357.33 107.42 360.17 106.70 362.96 106.14 C 365.76 105.59 368.61 105.11 371.38 104.82 C 374.15 104.53 376.93 104.37 379.60 104.40 C 382.27 104.44 384.90 104.64 387.41 105.02 C 389.93 105.40 392.36 105.97 394.69 106.68 C 397.01 107.39 399.23 108.29 401.37 109.29 C 403.50 110.29 405.53 111.45 407.50 112.67 C 409.46 113.90 411.33 115.26 413.15 116.66 C 414.98 118.06 416.73 119.56 418.46 121.08 C 420.19 122.61 421.86 124.20 423.51 125.81 C 425.17 127.43 426.79 129.09 428.38 130.78 C 429.96 132.47 431.53 134.20 433.04 135.98 C 434.55 137.75 436.04 139.56 437.43 141.42 C 438.83 143.29 440.19 145.20 441.44 147.17 C 442.68 149.14 443.86 151.16 444.90 153.24 C 445.94 155.32 446.88 157.46 447.68 159.64 C 448.49 161.83 449.16 164.08 449.71 166.35 C 450.25 168.63 450.65 170.96 450.94 173.30 C 451.23 175.64 451.38 178.03 451.45 180.40 C 451.51 182.77 451.45 185.17 451.34 187.55 C 451.23 189.92 451.02 192.31 450.78 194.66 C 450.54 197.02 450.23 199.36 449.92 201.67 C 449.60 203.99 449.25 206.29 448.89 208.56 C 448.52 210.83 448.14 213.07 447.73 215.30 C 447.32 217.53 446.91 219.73 446.43 221.91 C 445.96 224.10 445.47 226.26 444.88 228.40 C 444.30 230.55 443.68 232.67 442.93 234.77 C 442.18 236.86 441.37 238.94 440.41 240.98 Z"/></svg>