<svg xmlns="http://www.w3.org/2000/svg" viewBox="0 0 512 512" width="512" height="512"><path fill="#0a0a0a" d="M 446.94 238.19 C 446.50 240.16 445.93 242.13 445.22 244.05 C 444.50 245.98 443.64 247.89 442.65 249.75 C 441.67 251.61 440.53 253.44 439.32 255.21 C 438.11 256.99 436.76 258.72 435.41 260.40 C 434.07 262.09 432.61 263.72 431.23 265.32 C 429.85 266.92 428.42 268.47 427.12 270.02 C 425.82 271.57 424.53 273.07 423.45 274.61 C 422.37 276.16 421.48 277.71 420.64 279.27 C 419.79 280.84 419.04 282.41 418.37 284.01 C 417.69 285.60 417.11 287.22 416.58 288.86 C 416.05 290.51 415.63 292.18 415.20 293.88 C 414.77 295.57 414.42 297.31 414.00 299.03 C 413.58 300.75 413.20 302.49 412.70 304.20 C 412.20 305.90 411.68 307.62 411.02 309.26 C 410.36 310.90 409.62 312.52 408.74 314.04 C 407.87 315.57 406.87 317.04 405.76 318.42 C 404.65 319.80 403.41 321.10 402.09 322.32 C 400.78 323.55 399.34 324.67 397.89 325.76 C 396.44 326.84 394.89 327.84 393.39 328.84 C 391.88 329.84 390.33 330.77 388.86 331.75 C 387.40 332.73 385.94 333.69 384.59 334.74 C 383.24 335.79 381.95 336.86 380.77 338.05 C 379.60 339.25 378.52 340.51 377.52 341.91 C 376.53 343.30 375.65 344.81 374.81 346.42 C 373.97 348.02 373.24 349.77 372.49 351.56 C 371.73 353.34 371.08 355.29 370.28 357.12 C 369.48 358.95 368.50 360.57 367.70 362.53 C 366.91 364.49 366.23 366.66 365.51 368.87 C 364.78 371.07 364.10 373.44 363.34 375.78 C 362.57 378.11 361.78 380.52 360.89 382.87 C 360.01 385.22 359.06 387.58 358.01 389.86 C 356.95 392.13 355.81 394.37 354.58 396.50 C 353.34 398.64 352.01 400.70 350.58 402.64 C 349.16 404.58 347.63 406.43 346.03 408.15 C 344.43 409.86 342.73 411.46 340.96 412.92 C 339.19 414.37 337.34 415.71 335.42 416.87 C 333.51 418.04 331.51 419.07 329.47 419.90 C 327.42 420.73 325.31 421.41 323.16 421.87 C 321.01 422.32 318.80 422.60 316.57 422.63 C 314.34 422.66 312.06 422.49 309.78 422.05 C 307.51 421.62 305.20 420.95 302.92 420.03 C 300.64 419.12 298.35 417.94 296.11 416.56 C 293.87 415.18 291.65 413.54 289.50 411.76 C 287.35 409.98 285.24 407.95 283.22 405.90 C 281.20 403.84 279.24 401.57 277.36 399.42 C 275.49 397.28 273.70 395.00 271.95 393.05 C 270.21 391.11 268.51 389.70 266.90 387.75 C 265.30 385.81 263.77 383.52 262.31 381.37 C 260.86 379.22 259.49 376.95 258.16 374.85 C 256.83 372.74 255.58 370.66 254.34 368.74 C 253.11 366.81 251.94 364.99 250.77 363.31 C 249.60 361.62 248.47 360.07 247.34 358.61 C 246.21 357.15 245.10 355.83 244.00 354.54 C 242.90 353.25 241.81 352.07 240.75 350.86 C 239.70 349.65 238.65 348.50 237.66 347.28 C 236.67 346.05 235.70 344.83 234.81 343.51 C 233.92 342.19 233.08 340.81 232.33 339.34 C 231.57 337.88 230.89 336.32 230.29 334.70 C 229.70 333.07 229.19 331.35 228.76 329.60 C 228.32 327.86 227.98 326.03 227.68 324.24 C 227.39 322.44 227.18 320.60 226.96 318.85 C 226.75 317.10 226.60 315.35 226.40 313.74 C 226.20 312.13 226.04 310.58 225.77 309.20 C 225.51 307.81 225.23 306.54 224.83 305.43 C 224.43 304.32 223.96 303.36 223.35 302.56 C 222.75 301.75 222.04 301.10 221.19 300.57 C 220.35 300.04 219.37 299.68 218.28 299.38 C 217.18 299.08 215.95 298.92 214.62 298.78 C 213.29 298.65 211.83 298.61 210.31 298.56 C 208.79 298.51 207.16 298.52 205.50 298.49 C 203.83 298.46 202.08 298.45 200.32 298.39 C 198.55 298.32 196.73 298.24 194.90 298.10 C 193.07 297.97 191.21 297.80 189.32 297.57 C 187.44 297.35 185.54 297.09 183.60 296.78 C 181.67 296.47 179.71 296.12 177.71 295.73 C 175.70 295.34 173.67 294.91 171.58 294.44 C 169.49 293.97 167.35 293.46 165.17 292.91 C 162.98 292.36 160.73 291.78 158.46 291.13 C 156.19 290.48 153.85 289.80 151.53 289.03 C 149.21 288.27 146.83 287.45 144.53 286.54 C 142.22 285.63 139.89 284.65 137.70 283.57 C 135.51 282.49 133.32 281.33 131.38 280.05 C 129.43 278.78 127.54 277.40 126.04 275.92 C 124.54 274.43 123.70 272.74 122.38 271.13 C 121.05 269.53 119.54 267.93 118.10 266.27 C 116.66 264.62 115.17 262.93 113.73 261.19 C 112.29 259.45 110.87 257.66 109.46 255.84 C 108.05 254.01 106.67 252.14 105.27 250.22 C 103.86 248.31 102.47 246.35 101.04 244.35 C 99.60 242.34 98.15 240.30 96.64 238.19 C 95.13 236.09 93.58 233.93 91.99 231.72 C 90.39 229.50 88.74 227.23 87.07 224.88 C 85.41 222.54 83.69 220.13 82.01 217.66 C 80.33 215.18 78.61 212.63 77.01 210.03 C 75.40 207.43 73.80 204.75 72.38 202.05 C 70.95 199.34 69.59 196.56 68.46 193.79 C 67.32 191.01 66.32 188.18 65.57 185.38 C 64.82 182.59 64.26 179.77 63.97 177.00 C 63.67 174.24 63.61 171.48 63.78 168.79 C 63.96 166.11 64.39 163.47 65.01 160.90 C 65.63 158.34 66.50 155.83 67.51 153.40 C 68.51 150.97 69.74 148.62 71.03 146.33 C 72.33 144.03 73.79 141.81 75.28 139.63 C 76.76 137.44 78.36 135.33 79.95 133.22 C 81.54 131.12 83.18 129.07 84.81 127.02 C 86.44 124.98 88.09 122.95 89.73 120.95 C 91.38 118.94 93.01 116.94 94.69 114.97 C 96.36 113.01 98.03 111.05 99.78 109.17 C 101.54 107.29 103.30 105.42 105.20 103.68 C 107.10 101.94 109.05 100.25 111.17 98.74 C 113.28 97.22 115.50 95.80 117.88 94.59 C 120.27 93.39 122.80 92.33 125.49 91.53 C 128.17 90.72 131.03 90.10 134.01 89.74 C 136.99 89.38 140.14 89.26 143.36 89.37 C 146.58 89.47 149.96 89.84 153.34 90.38 C 156.72 90.92 160.21 91.72 163.63 92.63 C 167.06 93.53 170.55 94.66 173.90 95.78 C 177.25 96.91 180.61 98.24 183.74 99.39 C 186.87 100.54 189.93 101.80 192.70 102.70 C 195.47 103.60 197.71 103.79 200.35 104.80 C 202.99 105.81 205.84 107.30 208.55 108.78 C 211.26 110.25 214.00 111.96 216.62 113.66 C 219.25 115.36 221.82 117.17 224.28 118.96 C 226.74 120.75 229.12 122.59 231.38 124.39 C 233.65 126.18 235.82 127.99 237.88 129.72 C 239.94 131.45 241.90 133.16 243.75 134.75 C 245.61 136.34 247.35 137.89 249.00 139.28 C 250.65 140.66 252.19 141.96 253.64 143.06 C 255.10 144.16 256.45 145.13 257.74 145.86 C 259.02 146.59 260.21 147.15 261.36 147.44 C 262.51 147.73 263.57 147.80 264.63 147.60 C 265.69 147.40 266.68 146.95 267.70 146.25 C 268.72 145.55 269.70 144.57 270.73 143.40 C 271.77 142.23 272.80 140.78 273.91 139.22 C 275.01 137.65 276.15 135.84 277.36 133.99 C 278.58 132.15 279.85 130.12 281.21 128.15 C 282.56 126.18 283.99 124.10 285.48 122.16 C 286.97 120.22 288.54 118.27 290.15 116.52 C 291.76 114.76 293.45 113.09 295.15 111.64 C 296.85 110.18 298.60 108.89 300.35 107.81 C 302.10 106.73 303.88 105.86 305.64 105.18 C 307.39 104.49 309.16 104.03 310.90 103.70 C 312.64 103.36 314.36 103.24 316.08 103.18 C 317.79 103.11 319.48 103.22 321.18 103.32 C 322.89 103.42 324.57 103.63 326.28 103.79 C 327.99 103.95 329.71 104.15 331.47 104.28 C 333.23 104.41 335.01 104.51 336.85 104.58 C 338.68 104.66 340.56 104.67 342.47 104.71 C 344.37 104.74 346.22 104.92 348.29 104.80 C 350.36 104.67 352.58 104.29 354.87 103.95 C 357.15 103.61 359.56 103.14 361.99 102.76 C 364.42 102.38 366.94 101.96 369.44 101.68 C 371.94 101.39 374.50 101.14 376.99 101.06 C 379.49 100.98 381.99 100.99 384.40 101.19 C 386.81 101.38 389.19 101.72 391.45 102.22 C 393.72 102.73 395.91 103.40 397.99 104.22 C 400.07 105.03 402.06 106.02 403.95 107.11 C 405.83 108.20 407.61 109.45 409.32 110.76 C 411.03 112.07 412.64 113.51 414.20 114.98 C 415.76 116.46 417.24 118.02 418.69 119.60 C 420.14 121.18 421.54 122.82 422.92 124.47 C 424.30 126.12 425.64 127.80 426.97 129.49 C 428.30 131.19 429.61 132.90 430.88 134.64 C 432.16 136.38 433.42 138.13 434.62 139.92 C 435.82 141.72 437.00 143.53 438.09 145.40 C 439.18 147.26 440.22 149.16 441.16 151.10 C 442.09 153.04 442.96 155.03 443.71 157.06 C 444.45 159.09 445.10 161.17 445.64 163.27 C 446.18 165.37 446.60 167.52 446.94 169.68 C 447.27 171.84 447.48 174.03 447.64 176.21 C 447.80 178.40 447.86 180.60 447.89 182.78 C 447.93 184.96 447.88 187.15 447.86 189.30 C 447.83 191.46 447.76 193.60 447.72 195.71 C 447.69 197.83 447.65 199.92 447.65 202.00 C 447.65 204.07 447.67 206.11 447.72 208.15 C 447.76 210.19 447.85 212.21 447.92 214.22 C 447.99 216.23 448.10 218.24 448.15 220.24 C 448.20 222.24 448.26 224.24 448.22 226.24 C 448.17 228.24 448.10 230.24 447.89 232.24 C 447.68 234.23 447.39 236.22 446.94 238.19 Z"/></svg>