<svg xmlns="http://www.w3.org/2000/svg" viewBox="0 0 512 512" width="512" height="512"><path fill="#0a0a0a" d="M 437.43 249.88 C 437.26 251.82 437.03 253.77 436.66 255.69 C 436.29 257.61 435.82 259.52 435.21 261.40 C 434.61 263.28 433.88 265.15 433.04 266.97 C 432.20 268.79 431.23 270.58 430.20 272.33 C 429.17 274.08 428.02 275.79 426.87 277.46 C 425.72 279.13 424.48 280.76 423.30 282.37 C 422.12 283.98 420.91 285.54 419.79 287.11 C 418.67 288.68 417.57 290.22 416.60 291.78 C 415.62 293.35 414.72 294.90 413.93 296.49 C 413.15 298.09 412.47 299.70 411.89 301.35 C 411.30 303.01 410.84 304.69 410.42 306.42 C 410.00 308.15 409.69 309.93 409.39 311.73 C 409.08 313.53 408.85 315.38 408.58 317.24 C 408.32 319.10 408.20 321.06 407.80 322.89 C 407.40 324.73 406.87 326.53 406.18 328.23 C 405.50 329.93 404.66 331.58 403.67 333.11 C 402.68 334.64 401.52 336.08 400.24 337.41 C 398.96 338.73 397.51 339.95 395.99 341.07 C 394.46 342.19 392.79 343.18 391.11 344.12 C 389.42 345.07 387.63 345.89 385.88 346.71 C 384.14 347.54 382.34 348.28 380.63 349.06 C 378.93 349.85 377.23 350.60 375.65 351.44 C 374.07 352.28 372.55 353.14 371.15 354.12 C 369.74 355.10 368.44 356.15 367.22 357.32 C 366.01 358.49 364.91 359.78 363.84 361.15 C 362.77 362.51 361.80 363.98 360.81 365.49 C 359.82 367.01 358.81 368.50 357.92 370.23 C 357.02 371.95 356.27 373.90 355.45 375.85 C 354.63 377.81 353.86 379.89 353.00 381.94 C 352.14 383.99 351.27 386.10 350.30 388.13 C 349.32 390.15 348.29 392.18 347.15 394.07 C 346.01 395.97 344.78 397.81 343.45 399.50 C 342.13 401.18 340.69 402.76 339.18 404.18 C 337.66 405.59 336.04 406.87 334.36 407.99 C 332.68 409.10 330.90 410.07 329.08 410.88 C 327.26 411.69 325.36 412.34 323.44 412.86 C 321.51 413.37 319.53 413.73 317.53 413.96 C 315.54 414.19 313.50 414.27 311.46 414.23 C 309.42 414.18 307.35 414.00 305.30 413.68 C 303.24 413.37 301.18 412.92 299.13 412.34 C 297.08 411.76 295.03 411.04 293.02 410.23 C 291.00 409.41 289.00 408.43 287.04 407.43 C 285.09 406.44 283.16 405.32 281.28 404.25 C 279.40 403.19 277.56 402.42 275.76 401.04 C 273.96 399.66 272.18 397.85 270.48 395.96 C 268.79 394.08 267.15 391.93 265.60 389.75 C 264.05 387.57 262.58 385.21 261.18 382.90 C 259.79 380.59 258.48 378.17 257.24 375.88 C 256.00 373.59 254.84 371.29 253.72 369.15 C 252.60 367.02 251.56 364.95 250.53 363.07 C 249.49 361.20 248.51 359.46 247.52 357.90 C 246.54 356.34 245.58 354.95 244.60 353.71 C 243.62 352.47 242.64 351.42 241.64 350.46 C 240.65 349.50 239.64 348.71 238.62 347.95 C 237.60 347.18 236.57 346.55 235.54 345.88 C 234.52 345.21 233.48 344.61 232.48 343.94 C 231.48 343.27 230.48 342.61 229.54 341.85 C 228.59 341.10 227.67 340.30 226.81 339.42 C 225.95 338.55 225.14 337.59 224.38 336.59 C 223.62 335.59 222.92 334.51 222.25 333.43 C 221.57 332.35 220.97 331.21 220.34 330.13 C 219.71 329.05 219.14 327.95 218.49 326.96 C 217.85 325.98 217.22 325.02 216.48 324.21 C 215.74 323.41 214.97 322.69 214.03 322.14 C 213.10 321.58 212.09 321.16 210.90 320.89 C 209.71 320.63 208.38 320.52 206.87 320.53 C 205.36 320.54 203.69 320.72 201.84 320.96 C 200.00 321.21 197.97 321.59 195.81 321.99 C 193.66 322.39 191.32 322.89 188.90 323.34 C 186.49 323.79 183.91 324.30 181.32 324.70 C 178.73 325.11 176.02 325.51 173.35 325.78 C 170.67 326.05 167.94 326.26 165.28 326.32 C 162.62 326.39 159.95 326.35 157.38 326.17 C 154.82 325.99 152.30 325.68 149.89 325.24 C 147.49 324.79 145.16 324.21 142.96 323.51 C 140.77 322.80 138.65 321.97 136.73 321.00 C 134.80 320.04 133.00 318.93 131.41 317.71 C 129.83 316.49 128.78 314.98 127.21 313.67 C 125.64 312.37 123.81 311.16 121.98 309.88 C 120.16 308.61 118.20 307.34 116.25 306.02 C 114.29 304.70 112.26 303.36 110.26 301.95 C 108.25 300.53 106.20 299.08 104.23 297.56 C 102.26 296.03 100.28 294.45 98.41 292.79 C 96.55 291.13 94.73 289.40 93.06 287.60 C 91.38 285.80 89.79 283.93 88.37 282.00 C 86.94 280.07 85.64 278.07 84.49 276.02 C 83.34 273.98 82.34 271.88 81.47 269.75 C 80.59 267.62 79.88 265.45 79.25 263.26 C 78.62 261.07 78.13 258.85 77.69 256.62 C 77.25 254.39 76.93 252.14 76.61 249.88 C 76.30 247.63 76.06 245.36 75.81 243.09 C 75.57 240.81 75.36 238.52 75.14 236.22 C 74.93 233.93 74.72 231.61 74.53 229.29 C 74.35 226.96 74.15 224.62 74.02 222.27 C 73.89 219.92 73.77 217.56 73.75 215.20 C 73.74 212.83 73.76 210.46 73.94 208.11 C 74.12 205.76 74.38 203.40 74.84 201.10 C 75.30 198.81 75.88 196.52 76.68 194.31 C 77.47 192.10 78.44 189.93 79.61 187.86 C 80.77 185.79 82.14 183.79 83.68 181.89 C 85.21 179.99 86.95 178.19 88.80 176.48 C 90.65 174.77 92.69 173.17 94.77 171.65 C 96.85 170.13 99.08 168.72 101.29 167.36 C 103.50 166.00 105.80 164.74 108.03 163.51 C 110.26 162.27 112.52 161.10 114.68 159.93 C 116.84 158.76 118.97 157.63 121.01 156.48 C 123.04 155.33 125.00 154.19 126.88 153.02 C 128.76 151.86 130.55 150.68 132.31 149.49 C 134.06 148.31 135.73 147.10 137.41 145.91 C 139.08 144.73 140.70 143.52 142.37 142.38 C 144.04 141.25 145.69 140.11 147.42 139.08 C 149.15 138.05 150.92 137.06 152.75 136.19 C 154.59 135.32 156.51 134.56 158.43 133.85 C 160.36 133.15 162.34 132.53 164.30 131.96 C 166.27 131.39 168.00 130.55 170.24 130.41 C 172.47 130.28 175.09 130.61 177.72 131.15 C 180.34 131.68 183.18 132.56 186.01 133.61 C 188.83 134.66 191.77 136.01 194.65 137.46 C 197.53 138.90 200.45 140.59 203.26 142.31 C 206.07 144.02 208.86 145.90 211.51 147.74 C 214.16 149.59 216.74 151.52 219.16 153.36 C 221.58 155.20 223.89 157.06 226.05 158.78 C 228.21 160.51 230.23 162.19 232.12 163.71 C 234.00 165.24 235.75 166.67 237.37 167.94 C 239.00 169.21 240.49 170.35 241.89 171.32 C 243.29 172.30 244.56 173.13 245.76 173.79 C 246.96 174.45 248.05 174.96 249.09 175.29 C 250.14 175.63 251.09 175.80 252.01 175.79 C 252.93 175.78 253.78 175.61 254.62 175.23 C 255.45 174.86 256.23 174.31 257.02 173.55 C 257.81 172.80 258.57 171.85 259.35 170.69 C 260.14 169.53 260.91 168.16 261.73 166.60 C 262.55 165.04 263.38 163.26 264.29 161.32 C 265.20 159.39 266.14 157.23 267.17 154.97 C 268.20 152.71 269.29 150.25 270.48 147.77 C 271.68 145.28 272.95 142.63 274.32 140.04 C 275.69 137.45 277.16 134.77 278.71 132.22 C 280.26 129.67 281.92 127.10 283.64 124.75 C 285.35 122.39 287.17 120.10 289.01 118.06 C 290.85 116.03 292.78 114.14 294.70 112.54 C 296.63 110.93 298.60 109.54 300.55 108.42 C 302.50 107.30 304.48 106.44 306.40 105.83 C 308.32 105.23 310.26 104.84 312.08 104.81 C 313.91 104.78 315.57 105.41 317.34 105.68 C 319.11 105.95 320.84 106.31 322.69 106.45 C 324.53 106.60 326.43 106.60 328.40 106.54 C 330.37 106.48 332.39 106.34 334.50 106.10 C 336.62 105.86 338.80 105.53 341.09 105.12 C 343.38 104.72 345.76 104.20 348.23 103.67 C 350.70 103.13 353.28 102.50 355.92 101.90 C 358.56 101.31 361.31 100.65 364.08 100.10 C 366.85 99.55 369.70 98.99 372.52 98.61 C 375.34 98.22 378.22 97.89 381.00 97.77 C 383.78 97.66 386.57 97.67 389.21 97.92 C 391.86 98.16 394.46 98.59 396.88 99.25 C 399.30 99.91 401.62 100.79 403.75 101.88 C 405.88 102.97 407.86 104.29 409.66 105.76 C 411.46 107.24 413.09 108.94 414.57 110.75 C 416.04 112.55 417.34 114.54 418.52 116.59 C 419.71 118.64 420.72 120.82 421.67 123.02 C 422.62 125.22 423.44 127.50 424.22 129.77 C 425.01 132.04 425.70 134.34 426.38 136.62 C 427.07 138.89 427.70 141.17 428.34 143.41 C 428.98 145.65 429.59 147.88 430.21 150.08 C 430.83 152.28 431.44 154.45 432.04 156.61 C 432.63 158.78 433.23 160.91 433.78 163.06 C 434.33 165.20 434.88 167.33 435.36 169.47 C 435.84 171.61 436.28 173.75 436.66 175.90 C 437.03 178.05 437.35 180.21 437.59 182.37 C 437.83 184.53 438.00 186.71 438.11 188.87 C 438.22 191.04 438.25 193.22 438.25 195.37 C 438.24 197.53 438.17 199.69 438.09 201.82 C 438.01 203.96 437.88 206.08 437.77 208.17 C 437.67 210.27 437.54 212.34 437.45 214.39 C 437.36 216.45 437.28 218.47 437.25 220.48 C 437.21 222.49 437.21 224.47 437.23 226.45 C 437.25 228.43 437.32 230.38 437.38 232.34 C 437.43 234.30 437.53 236.25 437.58 238.20 C 437.63 240.15 437.70 242.10 437.67 244.05 C 437.65 245.99 437.60 247.94 437.43 249.88 Z"/></svg>