<svg xmlns="http://www.w3.org/2000/svg" viewBox="0 0 512 512" width="512" height="512"><path fill="#0a0a0a" d="M 434.41 251.51 C 434.23 253.35 434.01 255.19 433.70 257.01 C 433.38 258.82 432.99 260.64 432.51 262.43 C 432.02 264.22 431.43 266.00 430.76 267.74 C 430.10 269.48 429.32 271.20 428.50 272.89 C 427.69 274.58 426.79 276.24 425.89 277.88 C 424.99 279.51 424.04 281.12 423.12 282.71 C 422.20 284.30 421.24 285.85 420.37 287.42 C 419.51 288.99 418.66 290.53 417.91 292.10 C 417.17 293.68 416.50 295.25 415.92 296.86 C 415.34 298.47 414.86 300.10 414.44 301.77 C 414.03 303.44 413.72 305.15 413.42 306.89 C 413.13 308.63 412.92 310.42 412.68 312.21 C 412.43 314.00 412.23 315.83 411.93 317.63 C 411.63 319.44 411.32 321.27 410.87 323.04 C 410.43 324.80 409.92 326.57 409.24 328.24 C 408.57 329.90 407.78 331.53 406.84 333.05 C 405.89 334.56 404.80 336.00 403.58 337.33 C 402.36 338.65 400.98 339.88 399.53 341.01 C 398.09 342.14 396.49 343.16 394.89 344.12 C 393.29 345.09 391.58 345.94 389.92 346.80 C 388.26 347.66 386.55 348.44 384.94 349.28 C 383.32 350.12 381.72 350.92 380.24 351.83 C 378.76 352.74 377.34 353.68 376.04 354.74 C 374.74 355.81 373.54 356.95 372.44 358.22 C 371.33 359.50 370.35 360.90 369.40 362.40 C 368.45 363.90 367.63 365.56 366.75 367.21 C 365.86 368.86 364.94 370.48 364.09 372.28 C 363.25 374.08 362.48 376.02 361.68 378.01 C 360.88 380.01 360.14 382.16 359.29 384.25 C 358.45 386.33 357.59 388.49 356.61 390.52 C 355.63 392.56 354.59 394.59 353.42 396.46 C 352.26 398.33 350.99 400.13 349.63 401.74 C 348.26 403.36 346.77 404.85 345.20 406.16 C 343.64 407.46 341.96 408.61 340.22 409.58 C 338.48 410.55 336.64 411.35 334.76 412.00 C 332.89 412.64 330.94 413.11 328.97 413.45 C 327.00 413.79 324.98 413.97 322.96 414.04 C 320.93 414.11 318.88 414.03 316.83 413.86 C 314.78 413.68 312.72 413.38 310.67 412.98 C 308.63 412.59 306.58 412.08 304.56 411.48 C 302.54 410.89 300.52 410.17 298.54 409.42 C 296.56 408.66 294.60 407.73 292.69 406.94 C 290.77 406.16 288.92 405.69 287.06 404.70 C 285.21 403.72 283.36 402.51 281.57 401.03 C 279.79 399.56 278.03 397.76 276.35 395.86 C 274.68 393.97 273.06 391.83 271.53 389.65 C 270.00 387.48 268.54 385.12 267.17 382.81 C 265.80 380.49 264.51 378.07 263.29 375.76 C 262.07 373.45 260.94 371.12 259.85 368.95 C 258.75 366.78 257.74 364.66 256.74 362.74 C 255.74 360.82 254.79 359.02 253.84 357.41 C 252.89 355.80 251.97 354.36 251.03 353.08 C 250.08 351.80 249.15 350.71 248.19 349.73 C 247.23 348.75 246.25 347.94 245.26 347.19 C 244.28 346.43 243.26 345.82 242.25 345.19 C 241.24 344.57 240.21 344.03 239.21 343.44 C 238.20 342.86 237.19 342.29 236.21 341.66 C 235.24 341.03 234.28 340.37 233.37 339.64 C 232.45 338.92 231.57 338.13 230.73 337.31 C 229.89 336.49 229.10 335.59 228.32 334.71 C 227.54 333.83 226.81 332.89 226.05 332.01 C 225.30 331.13 224.58 330.23 223.79 329.44 C 223.00 328.65 222.21 327.89 221.31 327.27 C 220.40 326.66 219.46 326.12 218.36 325.74 C 217.26 325.35 216.08 325.09 214.72 324.96 C 213.35 324.84 211.86 324.86 210.19 324.99 C 208.52 325.11 206.69 325.38 204.70 325.70 C 202.72 326.02 200.55 326.47 198.28 326.90 C 196.01 327.34 193.56 327.85 191.07 328.30 C 188.57 328.75 185.93 329.23 183.30 329.59 C 180.67 329.95 177.95 330.28 175.29 330.47 C 172.63 330.65 169.93 330.76 167.34 330.71 C 164.74 330.66 162.17 330.50 159.72 330.18 C 157.27 329.86 154.89 329.40 152.65 328.81 C 150.41 328.21 148.26 327.48 146.26 326.62 C 144.26 325.76 142.35 324.78 140.66 323.66 C 138.97 322.54 137.55 321.23 136.13 319.90 C 134.71 318.58 133.66 317.06 132.15 315.71 C 130.64 314.37 128.87 313.12 127.09 311.82 C 125.30 310.51 123.39 309.23 121.43 307.90 C 119.47 306.57 117.41 305.23 115.34 303.83 C 113.26 302.43 111.11 301.00 108.99 299.50 C 106.87 298.00 104.71 296.45 102.63 294.82 C 100.56 293.19 98.48 291.50 96.54 289.73 C 94.59 287.96 92.70 286.11 90.97 284.20 C 89.23 282.28 87.60 280.29 86.13 278.24 C 84.66 276.20 83.33 274.08 82.15 271.92 C 80.97 269.77 79.95 267.55 79.05 265.31 C 78.15 263.07 77.40 260.78 76.74 258.48 C 76.09 256.18 75.56 253.85 75.10 251.51 C 74.63 249.17 74.27 246.81 73.93 244.44 C 73.60 242.07 73.34 239.69 73.11 237.30 C 72.88 234.91 72.68 232.50 72.54 230.09 C 72.39 227.68 72.26 225.25 72.22 222.82 C 72.17 220.39 72.16 217.95 72.26 215.52 C 72.36 213.10 72.52 210.66 72.84 208.25 C 73.15 205.85 73.56 203.44 74.16 201.10 C 74.76 198.75 75.49 196.43 76.43 194.18 C 77.36 191.94 78.47 189.74 79.77 187.64 C 81.07 185.54 82.57 183.51 84.23 181.58 C 85.88 179.66 87.74 177.83 89.70 176.10 C 91.65 174.37 93.79 172.74 95.97 171.20 C 98.15 169.66 100.47 168.22 102.76 166.84 C 105.05 165.46 107.43 164.18 109.73 162.91 C 112.03 161.65 114.35 160.46 116.57 159.26 C 118.79 158.06 120.97 156.90 123.05 155.71 C 125.12 154.53 127.12 153.35 129.04 152.15 C 130.96 150.95 132.78 149.73 134.57 148.50 C 136.35 147.27 138.04 146.01 139.75 144.78 C 141.45 143.56 143.10 142.30 144.80 141.12 C 146.50 139.95 148.19 138.77 149.96 137.71 C 151.74 136.65 153.54 135.63 155.45 134.75 C 157.35 133.88 159.33 133.10 161.37 132.44 C 163.41 131.79 165.60 131.34 167.69 130.83 C 169.77 130.32 171.65 129.60 173.87 129.38 C 176.10 129.17 178.50 129.17 181.06 129.55 C 183.63 129.92 186.46 130.70 189.25 131.63 C 192.05 132.55 194.98 133.79 197.83 135.11 C 200.69 136.42 203.60 137.98 206.39 139.54 C 209.17 141.11 211.94 142.83 214.56 144.49 C 217.18 146.15 219.73 147.89 222.12 149.51 C 224.50 151.13 226.77 152.75 228.90 154.21 C 231.02 155.68 233.00 157.08 234.86 158.32 C 236.71 159.55 238.42 160.66 240.03 161.61 C 241.64 162.56 243.11 163.37 244.51 164.02 C 245.90 164.66 247.18 165.15 248.40 165.49 C 249.62 165.83 250.75 166.01 251.85 166.05 C 252.94 166.09 253.96 165.98 254.96 165.71 C 255.96 165.45 256.91 165.05 257.85 164.49 C 258.80 163.92 259.71 163.21 260.63 162.34 C 261.55 161.46 262.45 160.43 263.38 159.23 C 264.31 158.02 265.24 156.65 266.22 155.12 C 267.20 153.59 268.19 151.88 269.26 150.04 C 270.32 148.19 271.42 146.17 272.60 144.05 C 273.78 141.94 275.02 139.66 276.35 137.36 C 277.68 135.06 279.09 132.62 280.59 130.25 C 282.08 127.87 283.67 125.41 285.33 123.09 C 286.99 120.77 288.75 118.44 290.56 116.33 C 292.37 114.21 294.27 112.16 296.19 110.38 C 298.10 108.60 300.10 106.97 302.07 105.64 C 304.05 104.32 306.07 103.19 308.04 102.42 C 310.01 101.66 311.98 101.19 313.87 101.03 C 315.76 100.87 317.50 101.39 319.37 101.48 C 321.24 101.57 323.16 101.52 325.08 101.55 C 327.00 101.57 328.94 101.61 330.90 101.63 C 332.87 101.64 334.86 101.68 336.90 101.66 C 338.94 101.63 341.00 101.60 343.14 101.49 C 345.29 101.39 347.47 101.23 349.74 101.03 C 352.01 100.83 354.35 100.56 356.76 100.28 C 359.17 100.00 361.67 99.65 364.20 99.35 C 366.74 99.05 369.36 98.71 371.98 98.48 C 374.60 98.24 377.29 98.02 379.92 97.96 C 382.56 97.90 385.23 97.90 387.80 98.12 C 390.37 98.33 392.92 98.67 395.33 99.23 C 397.74 99.79 400.08 100.52 402.25 101.48 C 404.41 102.43 406.46 103.59 408.33 104.93 C 410.20 106.28 411.91 107.84 413.45 109.54 C 415.00 111.23 416.36 113.14 417.60 115.11 C 418.83 117.09 419.88 119.23 420.85 121.40 C 421.82 123.57 422.63 125.85 423.40 128.12 C 424.17 130.39 424.83 132.72 425.48 135.00 C 426.13 137.28 426.71 139.58 427.32 141.83 C 427.92 144.07 428.50 146.30 429.11 148.48 C 429.72 150.65 430.33 152.79 430.97 154.90 C 431.60 157.00 432.26 159.07 432.91 161.12 C 433.56 163.18 434.23 165.20 434.86 167.23 C 435.49 169.26 436.12 171.28 436.67 173.32 C 437.23 175.35 437.76 177.39 438.19 179.45 C 438.62 181.52 438.99 183.60 439.26 185.69 C 439.52 187.79 439.70 189.91 439.78 192.03 C 439.86 194.15 439.84 196.29 439.75 198.42 C 439.67 200.55 439.48 202.68 439.26 204.80 C 439.04 206.91 438.73 209.02 438.44 211.10 C 438.14 213.17 437.79 215.23 437.49 217.26 C 437.18 219.29 436.85 221.29 436.58 223.26 C 436.31 225.23 436.06 227.17 435.86 229.09 C 435.66 231.02 435.50 232.91 435.36 234.80 C 435.23 236.68 435.15 238.55 435.05 240.41 C 434.96 242.28 434.90 244.13 434.80 245.98 C 434.69 247.83 434.59 249.67 434.41 251.51 Z"/></svg>