<?xml version="1.0" encoding="UTF-8"?>
<svg id="Layer_1" xmlns="http://www.w3.org/2000/svg" version="1.1" viewBox="0 0 3000 337.413">
  <!-- Generator: Adobe Illustrator 30.6.0, SVG Export Plug-In . SVG Version: 2.1.4 Build 109)  -->
  <defs>
    <style>
      .st0 {
        fill: #282828;
      }
    </style>
  </defs>
  <path class="st0" d="M0,7.176h60.043s0,270.657,0,270.657h174.125s0,52.653,0,52.653H0s0-323.31,0-323.31Z"/>
  <path class="st0" d="M259.083,281.989V55.672s0-48.497,0-48.497h60.043s0,48.497,0,48.497v226.317s0,48.496,0,48.496h-60.043s0-48.496,0-48.496Z"/>
  <path class="st0" d="M343.596,7.176h66.971s59.12,191.215,59.12,191.215l25.402,82.213c5.542-16.166,10.162-30.022,26.328-81.751L581.458,7.176h65.587s-108.539,323.31-108.539,323.31h-86.371S343.596,7.176,343.596,7.176Z"/>
  <path class="st0" d="M671.956,281.989V55.672s0-48.497,0-48.497h60.042s0,48.497,0,48.497v226.317s0,48.496,0,48.496h-60.042s0-48.496,0-48.496Z"/>
  <path class="st0" d="M790.184,7.176h82.675s156.575,221.698,156.575,221.698v-78.518s0-143.18,0-143.18h60.043s0,323.31,0,323.31h-56.349s-182.901-258.186-182.901-258.186v92.375s0,165.811,0,165.811h-60.043s0-323.31,0-323.31Z"/>
  <path class="st0" d="M1128.239,169.754c0-97.455,73.437-169.507,167.659-169.507,85.447,0,132.557,46.649,149.647,97.917l-58.196,22.17c-13.856-38.336-39.722-68.357-91.913-68.357-56.81,0-103.921,42.03-103.921,117.315,0,74.823,44.34,117.315,102.073,117.315,58.197,0,86.833-36.026,90.527-67.895h-107.617s0-51.73,0-51.73h167.198s0,163.502,0,163.502h-55.424s0-50.344,0-50.344c-12.472,21.708-40.645,57.272-107.155,57.272-85.447,0-152.879-61.89-152.879-167.659Z"/>
  <path class="st0" d="M1698.089,58.658h-113.159s0-51.73,0-51.73h286.361s0,51.73,0,51.73h-113.159s0,271.58,0,271.58h-60.043s0-271.58,0-271.58Z"/>
  <path class="st0" d="M1896.202,6.928h60.042s0,130.709,0,130.709h151.495s0-130.709,0-130.709h60.043s0,323.31,0,323.31h-60.043s0-140.871,0-140.871h-151.495s0,140.871,0,140.871h-60.042s0-323.31,0-323.31Z"/>
  <path class="st0" d="M2226.41,281.742V55.425s0-48.497,0-48.497h60.043s0,48.497,0,48.497v226.317s0,48.496,0,48.496h-60.043s0-48.496,0-48.496Z"/>
  <path class="st0" d="M2344.639,6.928h82.675s156.575,221.698,156.575,221.698v-78.518s0-143.18,0-143.18h60.043s0,323.31,0,323.31h-56.349s-182.901-258.186-182.901-258.186v92.375s0,165.811,0,165.811h-60.043s0-323.31,0-323.31Z"/>
  <path class="st0" d="M2682.694,169.507c0-97.455,73.436-169.507,167.659-169.507,85.447,0,132.557,46.649,149.647,97.917l-58.196,22.17c-13.856-38.336-39.722-68.357-91.913-68.357-56.81,0-103.921,42.03-103.921,117.315,0,74.823,44.34,117.315,102.073,117.315,58.197,0,86.833-36.026,90.527-67.895h-107.617s0-51.73,0-51.73h167.198s0,163.502,0,163.502h-55.424s0-50.344,0-50.344c-12.472,21.708-40.645,57.272-107.155,57.272-85.447,0-152.879-61.89-152.879-167.659Z"/>
</svg>