<?xml version="1.0" encoding="UTF-8"?>
<svg id="Layer_1" xmlns="http://www.w3.org/2000/svg" version="1.1" viewBox="0 0 3000 307.807">
  <!-- Generator: Adobe Illustrator 30.6.0, SVG Export Plug-In . SVG Version: 2.1.4 Build 109)  -->
  <defs>
    <style>
      .st0 {
        fill: #282828;
      }
    </style>
  </defs>
  <g>
    <path class="st0" d="M0,7.642h53.664s0,241.898,0,241.898h155.623s0,47.058,0,47.058H0s0-288.956,0-288.956Z"/>
    <path class="st0" d="M231.554,253.255V50.986s0-43.344,0-43.344h53.664s0,43.344,0,43.344v202.27s0,43.343,0,43.343h-53.664s0-43.343,0-43.343Z"/>
    <path class="st0" d="M307.087,7.642h59.855s52.838,170.897,52.838,170.897l22.703,73.478c4.953-14.448,9.082-26.832,23.53-73.065L519.675,7.642h58.618s-97.006,288.956-97.006,288.956h-77.194S307.087,7.642,307.087,7.642Z"/>
    <path class="st0" d="M600.556,253.255V50.986s0-43.344,0-43.344h53.662s0,43.344,0,43.344v202.27s0,43.343,0,43.343h-53.662s0-43.343,0-43.343Z"/>
    <path class="st0" d="M706.222,7.642h73.891s139.938,198.142,139.938,198.142v-70.175s0-127.966,0-127.966h53.664s0,288.956,0,288.956h-50.362s-163.466-230.752-163.466-230.752v82.56s0,148.193,0,148.193h-53.664s0-288.956,0-288.956Z"/>
    <path class="st0" d="M1008.357,152.946c0-87.1,65.634-151.496,149.844-151.496,76.368,0,118.472,41.692,133.746,87.513l-52.012,19.814c-12.384-34.262-35.501-61.094-82.147-61.094-50.773,0-92.879,37.564-92.879,104.85,0,66.873,39.628,104.85,91.227,104.85,52.013,0,77.606-32.198,80.908-60.68h-96.182s0-46.233,0-46.233h149.433s0,146.129,0,146.129h-49.535s0-44.994,0-44.994c-11.146,19.401-36.327,51.186-95.769,51.186-76.368,0-136.635-55.314-136.635-149.844Z"/>
  </g>
  <g>
    <path class="st0" d="M1836.424,52.425h-101.135s0-46.233,0-46.233h255.934s0,46.233,0,46.233h-101.135s0,242.723,0,242.723h-53.664s0-242.723,0-242.723Z"/>
    <path class="st0" d="M2013.487,6.192h53.662s0,116.821,0,116.821h135.397s0-116.821,0-116.821h53.664s0,288.956,0,288.956h-53.664s0-125.903,0-125.903h-135.397s0,125.903,0,125.903h-53.662s0-288.956,0-288.956Z"/>
    <path class="st0" d="M2308.608,251.805V49.535s0-43.344,0-43.344h53.664s0,43.344,0,43.344v202.27s0,43.343,0,43.343h-53.664s0-43.343,0-43.343Z"/>
    <path class="st0" d="M2414.275,6.192h73.891s139.938,198.142,139.938,198.142v-70.175s0-127.966,0-127.966h53.664s0,288.956,0,288.956h-50.362s-163.466-230.752-163.466-230.752v82.56s0,148.193,0,148.193h-53.664s0-288.956,0-288.956Z"/>
    <path class="st0" d="M2716.41,151.496c0-87.1,65.633-151.496,149.844-151.496,76.368,0,118.472,41.692,133.746,87.513l-52.012,19.814c-12.384-34.262-35.501-61.094-82.147-61.094-50.773,0-92.879,37.564-92.879,104.85,0,66.873,39.628,104.85,91.227,104.85,52.013,0,77.606-32.198,80.908-60.68h-96.182s0-46.233,0-46.233h149.433s0,146.129,0,146.129h-49.535s0-44.994,0-44.994c-11.146,19.401-36.327,51.186-95.769,51.186-76.368,0-136.635-55.314-136.635-149.844Z"/>
  </g>
  <path class="st0" d="M1669.363,166.168c.371,1.68.844,3.369,1.379,5.084.534,1.715,1.172,3.447,1.827,5.222.655,1.767,1.387,3.568,2.085,5.394.698,1.835,1.439,3.705,2.094,5.593.655,1.887,1.31,3.809,1.853,5.748.551,1.93,1.043,3.895,1.43,5.86.388,1.956.689,3.938.905,5.911.215,1.973.327,3.955.388,5.937.06,1.982.017,3.955-.034,5.946-.06,1.982-.19,3.973-.31,5.98-.112,2.008-.267,4.024-.396,6.075-.138,2.051-.267,4.119-.388,6.23-.112,2.103-.207,4.248-.319,6.428-.112,2.172-.19,4.386-.345,6.609-.146,2.223-.284,4.49-.56,6.721-.267,2.223-.569,4.481-1.06,6.644-.491,2.154-1.069,4.309-1.887,6.299-.827,1.982-1.801,3.921-3.042,5.627-1.249,1.706-2.714,3.3-4.446,4.619-1.732,1.318-3.723,2.447-5.955,3.283-2.232.836-4.739,1.43-7.428,1.732-2.689.293-5.653.31-8.703.078-3.051-.233-6.325-.776-9.6-1.482-3.275-.715-6.713-1.715-10.039-2.775-3.318-1.051-6.739-2.378-9.893-3.55-3.163-1.181-6.273-2.499-9.039-3.49-2.775-.991-4.903-1.284-7.575-2.456-2.671-1.172-5.662-2.895-8.462-4.576-2.801-1.68-5.653-3.628-8.342-5.515-2.689-1.887-5.317-3.895-7.773-5.799-2.465-1.904-4.808-3.843-6.989-5.636-2.172-1.784-4.205-3.542-6.084-5.11-1.879-1.568-3.593-3.042-5.17-4.291-1.577-1.258-2.99-2.37-4.283-3.231s-2.439-1.542-3.473-1.939c-1.043-.396-1.947-.577-2.775-.457-.827.129-1.534.508-2.206,1.198-.664.689-1.232,1.663-1.801,2.938s-1.077,2.861-1.611,4.696c-.534,1.844-1.043,3.998-1.62,6.342-.577,2.344-1.155,4.989-1.844,7.73-.681,2.74-1.413,5.739-2.258,8.721-.845,2.99-1.775,6.153-2.818,9.186-1.043,3.033-2.197,6.144-3.447,9.014-1.25,2.87-2.628,5.713-4.067,8.186-1.448,2.482-3.007,4.852-4.593,6.687-1.577,1.835-3.249,3.188-4.903,4.334-1.655,1.146-3.335,1.741-5.041,2.525-1.706.784-3.464,1.637-5.205,2.18-1.732.543-3.49.905-5.213,1.077-1.723.172-3.438.129-5.119-.043-1.68-.164-3.335-.526-4.972-.939-1.629-.414-3.223-.982-4.817-1.534-1.586-.56-3.154-1.206-4.722-1.801-1.568-.595-3.128-1.215-4.705-1.784-1.586-.56-3.171-1.103-4.783-1.603-1.611-.491-3.24-.939-4.895-1.387-1.655-.439-3.335-.827-5.015-1.25-1.68-.431-3.395-.827-5.076-1.31-1.68-.483-3.378-.965-5.015-1.577-1.646-.603-3.275-1.258-4.817-2.051-1.542-.784-3.051-1.672-4.455-2.68-1.405-1.008-2.749-2.146-3.981-3.378-1.232-1.241-2.37-2.602-3.421-4.041-1.051-1.439-1.991-2.99-2.87-4.576-.879-1.586-1.655-3.266-2.396-4.938-.741-1.672-1.405-3.395-2.051-5.093-.646-1.689-1.241-3.395-1.853-5.058-.612-1.655-1.189-3.3-1.801-4.895-.62-1.594-1.232-3.145-1.879-4.662-.638-1.525-1.301-2.99-1.982-4.438-.681-1.448-1.396-2.852-2.103-4.257-.698-1.405-1.43-2.775-2.137-4.162-.707-1.387-1.413-2.758-2.085-4.145-.672-1.387-1.336-2.783-1.948-4.197-.62-1.405-1.198-2.826-1.749-4.266-.552-1.43-1.06-2.878-1.56-4.326-.491-1.439-.948-2.895-1.422-4.343-.465-1.448-.913-2.895-1.387-4.326-.483-1.43-.957-2.852-1.482-4.266-.517-1.413-1.034-2.818-1.637-4.214-.603-1.387-1.25-2.758-1.982-4.128-.741-1.362-1.56-2.714-2.447-4.067-.888-1.362-1.87-2.706-2.887-4.076-1.008-1.37-2.12-2.749-3.197-4.162-1.086-1.413-2.223-2.844-3.283-4.317-1.06-1.474-2.137-2.982-3.076-4.524-.939-1.551-1.835-3.137-2.559-4.748-.732-1.611-1.353-3.266-1.792-4.929-.431-1.663-.724-3.352-.836-5.041-.112-1.68-.043-3.378.172-5.058.207-1.68.612-3.352,1.103-4.998.5-1.646,1.172-3.275,1.887-4.86.715-1.594,1.56-3.163,2.413-4.696.853-1.534,1.792-3.033,2.697-4.515.905-1.482,1.853-2.938,2.749-4.378.905-1.439,1.801-2.861,2.645-4.274.853-1.413,1.68-2.809,2.473-4.205.793-1.405,1.542-2.792,2.275-4.188s1.474-2.766,2.12-4.179c.646-1.413,1.112-2.878,1.767-4.274.646-1.405,1.198-2.861,2.137-4.11.939-1.258,2.189-2.378,3.507-3.421,1.318-1.034,2.835-1.965,4.403-2.809,1.568-.844,3.3-1.577,5.007-2.266,1.706-.681,3.516-1.258,5.239-1.844,1.723-.586,3.481-1.086,5.084-1.663,1.603-.569,3.171-1.112,4.541-1.767,1.37-.664,2.628-1.353,3.688-2.206,1.06-.862,1.948-1.801,2.654-2.938.707-1.137,1.206-2.413,1.586-3.878.379-1.465.552-3.111.672-4.895.129-1.784.069-3.783.086-5.808.017-2.016-.103-4.248.009-6.316.103-2.06.56-3.8.646-6.067.086-2.258-.069-4.877-.121-7.523-.052-2.645-.198-5.515-.207-8.35-.009-2.844,0-5.799.164-8.669.164-2.87.414-5.774.827-8.54.414-2.758.957-5.489,1.663-8.031.715-2.551,1.577-4.998,2.585-7.221,1.017-2.232,2.197-4.317,3.507-6.153,1.318-1.835,2.792-3.49,4.386-4.869,1.586-1.387,3.326-2.551,5.162-3.43,1.835-.879,3.8-1.517,5.834-1.853s4.179-.405,6.36-.164c2.18.241,4.455.767,6.73,1.594,2.284.819,4.619,1.956,6.928,3.352,2.309,1.387,4.653,3.102,6.928,5.007,2.284,1.904,4.559,4.119,6.73,6.42,2.18,2.301,4.317,4.895,6.334,7.376,2.025,2.482,3.964,5.213,5.782,7.514,1.81,2.309,3.481,3.826,5.127,6.334,1.637,2.499,3.257,5.636,4.739,8.695,1.482,3.068,2.861,6.463,4.128,9.686,1.258,3.223,2.396,6.558,3.447,9.651,1.051,3.094,1.973,6.144,2.835,8.902.87,2.758,1.62,5.351,2.361,7.644.732,2.284,1.387,4.326,2.06,6.092.664,1.767,1.284,3.24,1.93,4.49.646,1.258,1.284,2.215,1.956,3.025.672.81,1.353,1.362,2.068,1.835.707.474,1.448.741,2.206,1.008.758.259,1.542.388,2.335.552.784.164,1.594.276,2.396.422.793.155,1.603.302,2.396.491.793.19,1.577.414,2.361.646.784.233,1.56.5,2.344.75.784.241,1.56.517,2.378.724.827.207,1.646.405,2.542.517.896.112,1.818.181,2.835.155,1.025-.034,2.094-.138,3.283-.336,1.189-.198,2.456-.491,3.843-.853,1.379-.362,2.861-.819,4.447-1.301,1.586-.491,3.283-1.06,5.05-1.611,1.775-.552,3.645-1.155,5.567-1.706,1.913-.543,3.912-1.103,5.92-1.577,2.008-.474,4.067-.913,6.11-1.25,2.042-.345,4.102-.612,6.127-.776,2.016-.164,4.033-.233,5.989-.198,1.965.034,3.895.164,5.782.388,1.879.224,3.723.552,5.515.948,1.801.396,3.559.888,5.274,1.439,1.723.56,3.404,1.189,5.041,1.887s3.266,1.448,4.791,2.292c1.534.836,3.033,1.741,4.395,2.732,1.37,1,2.439,2.172,3.817,3.223,1.379,1.051,2.956,2.034,4.455,3.094,1.499,1.06,3.076,2.128,4.541,3.266,1.474,1.146,2.947,2.327,4.283,3.585,1.336,1.258,2.611,2.585,3.723,3.973,1.112,1.387,2.12,2.852,2.956,4.36.845,1.508,1.534,3.085,2.085,4.696.551,1.603.931,3.275,1.224,4.938.284,1.672.405,3.387.491,5.084.086,1.698.034,3.421.009,5.119-.026,1.706-.138,3.404-.172,5.093-.043,1.689-.103,3.369-.06,5.041.043,1.663.121,3.326.31,4.989.19,1.663.465,3.318.836,4.998Z"/>
</svg>